<svg width="228" height="169" viewBox="0 0 228 169" fill="none" xmlns="http://www.w3.org/2000/svg">
<path d="M2.53459 87.1762L90.1045 36.2382C91.3916 35.4956 92.9756 35.4956 94.2627 36.2382L225.197 111.185C227.177 112.324 227.87 114.848 226.731 116.828C226.385 117.472 225.84 117.967 225.197 118.363L141.439 166.727C137.28 169.152 132.083 169.152 127.924 166.727L2.53459 94.3541C0.554491 93.2155 -0.138544 90.6909 1.00001 88.7108C1.39603 88.0673 1.89106 87.5228 2.53459 87.1762Z" fill="#CCE7E9"/>
<path d="M2.08299 79.8731L89.6529 28.9351C90.94 28.1925 92.524 28.1925 93.8111 28.9351L224.745 103.882C226.725 105.02 227.418 107.545 226.28 109.525C225.933 110.169 225.389 110.664 224.745 111.06L140.987 159.424C136.829 161.849 131.631 161.849 127.473 159.424L2.08299 87.051C0.102892 85.9124 -0.590143 83.3878 0.548414 81.4077C0.944434 80.7642 1.43946 80.2197 2.08299 79.8731Z" fill="url(#paint0_radial_642_2182)"/>
<path d="M48.7142 88.239V90.3676L49.8032 91.6547" fill="#68E1FD"/>
<path d="M91.4349 62.3493L49.9518 88.0411C48.7638 88.7836 48.3677 90.3677 49.1103 91.5557C49.3578 91.9023 49.6548 92.2488 50.0508 92.4468L113.018 128.039C114.8 129.029 117.028 129.029 118.76 127.99L160.045 103.733C163.065 101.258 162.818 96.605 160.045 96.407L97.4742 62.2008C95.5436 61.2107 93.2665 61.2107 91.4349 62.3493Z" fill="#68E1FD"/>
<path d="M91.4349 60.6167L49.9518 86.3085C48.7638 87.0511 48.3677 88.6351 49.1103 89.8232C49.3578 90.1697 49.6548 90.5163 50.0508 90.7143L113.018 126.307C114.8 127.297 116.978 127.297 118.76 126.257L160.045 102.001C161.58 101.11 162.075 99.1297 161.184 97.6446C160.887 97.1496 160.491 96.7536 160.045 96.506L97.4742 60.5177C95.5436 59.4287 93.2665 59.4782 91.4349 60.6167Z" fill="white"/>
<path d="M93.1181 57.0525C93.1181 57.0525 110.345 1.51069 110.246 1.51069C110.147 1.51069 110.79 -0.964428 113.86 0.421641L179.945 39.3306C179.945 39.3306 183.163 40.6177 182.52 43.5878C181.876 46.558 165.689 97.991 165.689 97.991C164.996 98.9811 163.709 99.4266 162.57 99.0801C160.54 98.4366 94.6526 60.1711 94.6526 60.1711C94.6526 60.1711 92.4745 59.3791 93.1181 57.0525Z" fill="#68E1FD"/>
<path d="M111.335 5.52039L179.005 44.9739L164.996 92.1497L96.4346 53.8348L111.335 5.52039Z" fill="#172D51"/>
<path d="M88.8609 66.4579L73.7131 75.9129C72.8716 76.4574 72.5746 77.596 73.1191 78.4375C73.2676 78.685 73.5151 78.883 73.7626 79.0811L128.215 110.119C129.898 111.06 131.928 111.06 133.562 110.119C137.076 108.09 143.066 104.426 146.779 102.149C147.818 101.506 148.165 100.12 147.521 99.0801C147.323 98.783 147.076 98.486 146.729 98.288C135.74 91.9022 99.8009 71.0121 91.93 66.4084C90.9895 65.8639 89.8014 65.9134 88.8609 66.4579Z" fill="#68E1FD"/>
<path d="M89.7023 92.1497L108.711 102.842C109.602 103.337 109.949 104.525 109.454 105.416C109.305 105.713 109.058 105.961 108.761 106.109L97.5732 112.644C96.7812 113.089 95.8406 113.089 95.0486 112.644L75.5941 101.555C74.8516 101.11 74.5546 100.12 75.0001 99.3771C75.1486 99.1295 75.3466 98.9315 75.5941 98.783L87.2272 92.1002C87.9698 91.7042 88.9103 91.7042 89.7023 92.1497Z" fill="#68E1FD"/>
<path opacity="0.1" d="M88.8609 66.4579L73.7131 75.9129C72.8716 76.4574 72.5746 77.596 73.1191 78.4375C73.2676 78.685 73.5151 78.883 73.7626 79.0811L128.215 110.119C129.898 111.06 131.928 111.06 133.562 110.119C137.076 108.09 143.066 104.426 146.779 102.149C147.818 101.506 148.165 100.12 147.521 99.0801C147.323 98.783 147.076 98.486 146.729 98.288C135.74 91.9022 99.8009 71.0121 91.93 66.4084C90.9895 65.8639 89.8014 65.9134 88.8609 66.4579Z" fill="#172D51"/>
<path opacity="0.1" d="M89.7023 92.1497L108.711 102.842C109.602 103.337 109.949 104.525 109.454 105.416C109.305 105.713 109.058 105.961 108.761 106.109L97.5732 112.644C96.7812 113.089 95.8406 113.089 95.0486 112.644L75.5941 101.555C74.8516 101.11 74.5546 100.12 75.0001 99.3771C75.1486 99.1295 75.3466 98.9315 75.5941 98.783L87.2272 92.1002C87.9698 91.7042 88.9103 91.7042 89.7023 92.1497Z" fill="#172D51"/>
<path d="M75.5447 94.2288C74.1091 90.5656 73.5646 86.5064 73.3666 82.4472C73.1686 77.299 75.0497 69.4281 82.5245 69.9726C93.0686 70.6657 96.7812 82.1502 102.425 85.2689C108.068 88.3875 120.839 83.2393 121.681 87.9915C122.523 92.8428 120.245 98.4365 116.929 101.902C108.959 110.268 93.1676 109.624 83.7621 104.179C79.6534 101.803 77.0793 98.288 75.5447 94.2288Z" fill="#FA6D90"/>
<path opacity="0.5" d="M112.721 102.793C95.494 105.119 74.6535 93.9318 73.812 76.903C73.4159 79.4276 73.2674 80.3681 73.3169 82.2492C73.4654 86.3084 74.0595 90.3676 75.495 94.0308C77.0296 98.09 79.6037 101.605 83.7124 104.03C93.0189 109.426 108.612 110.119 116.632 102.001C115.345 102.347 114.057 102.644 112.721 102.793Z" fill="#172D51"/>
<path d="M119.701 65.2699C119.701 64.6758 119.404 64.1313 118.909 63.7848C118.859 63.2898 118.562 62.8442 118.117 62.6462C118.067 62.6462 118.067 62.5967 118.018 62.5967C118.414 61.8542 118.711 61.1117 118.958 60.3196C118.958 59.9731 118.661 59.7256 118.315 59.7256C118.067 59.7256 117.869 59.8741 117.77 60.0721C117.424 61.0622 116.929 62.0522 116.384 62.9432C116.335 62.8937 116.285 62.8937 116.236 62.8937C115.542 62.7947 114.899 62.6462 114.651 63.4383C114.404 64.2303 114.206 65.0223 114.008 65.8144C113.958 66.0619 114.107 66.3589 114.354 66.4084C114.354 66.4084 114.354 66.4084 114.404 66.4084C114.503 66.7054 114.8 66.8539 115.097 66.7549C115.146 66.8539 115.196 66.9529 115.245 67.0519L115.196 67.1015C114.998 67.349 115.047 67.6955 115.295 67.844C115.394 67.8935 115.493 67.943 115.641 67.943C115.196 68.24 115.443 69.0321 116.037 68.834C117.127 68.438 118.661 68.141 119.503 67.2995C120.146 66.8044 120.196 65.8639 119.701 65.2699Z" fill="#FFB5A9"/>
<path d="M116.384 66.9034C116.582 66.6064 116.483 66.2599 116.186 66.0619C116.137 66.0619 116.087 66.0124 116.087 66.0124L116.186 65.8639C116.384 65.5668 116.285 65.1708 115.939 64.9728C115.79 64.8738 115.592 64.8738 115.394 64.9233C115.196 64.6263 114.8 64.5768 114.553 64.7748C114.454 64.8243 114.404 64.9233 114.355 64.9728C113.662 66.1609 112.919 67.3489 112.028 68.438C111.879 68.636 111.83 68.933 111.978 69.1805L111.83 69.428C111.632 69.6756 111.681 70.0221 111.978 70.2201C112.028 70.2696 112.077 70.2696 112.127 70.3191C112.226 70.4676 112.374 70.5666 112.523 70.6161C112.325 71.0616 112.77 71.4081 113.216 71.4081C113.414 71.7052 113.761 71.7547 114.058 71.5567C114.107 71.5071 114.107 71.5072 114.157 71.4576C115.196 70.3686 116.038 69.131 116.632 67.745C116.731 67.3984 116.632 67.1014 116.384 66.9034Z" fill="#FFB5A9"/>
<path d="M111.236 88.0904C113.909 85.6152 116.879 82.1006 114.998 79.3284C111.929 74.7247 103.563 80.071 102.177 80.368C96.1871 81.655 83.762 95.9118 94.9495 95.3672C100.048 95.1692 104.949 93.2881 108.909 90.12C109.553 89.5754 110.345 88.8824 111.236 88.0904Z" fill="#3E2928"/>
<path d="M111.137 88.0411C111.236 87.7936 111.384 87.5956 111.632 87.4471C112.671 86.8531 113.859 86.457 115.047 86.259C115.444 86.16 115.79 86.259 116.087 86.556C116.582 82.1008 114.998 79.3782 114.998 79.3782L110.84 88.3876C110.939 88.2391 111.038 88.1401 111.137 88.0411Z" fill="#3E2928"/>
<path d="M113.068 66.5569C112.919 66.5074 112.771 66.4579 112.672 66.3589L106.385 71.8536C104.999 69.6755 104.207 67.2004 104.058 64.6263C103.811 60.3691 95.6923 59.676 95.6923 59.676L99.1574 74.0813C99.1574 74.0813 101.484 79.873 105.395 80.3681C108.464 80.7641 114.8 74.3783 117.374 70.7151C116.384 68.933 115.147 67.2499 113.068 66.5569Z" fill="#00A99D"/>
<path d="M91.9299 54.8744C89.0588 57.3495 86.8312 60.5672 85.5936 64.1809C83.366 70.3192 88.9598 80.4177 88.9598 80.4177L97.6227 73.5863" fill="#007F68"/>
<path d="M85.0985 88.4369C85.049 89.6745 85.346 90.8625 85.9896 91.9021C86.7816 93.1891 88.0192 94.1297 89.4547 94.6247C91.2368 95.2188 93.1179 95.4663 94.999 95.3673C98.8602 95.1197 102.226 93.3377 105.048 90.8625C104.503 84.0312 102.573 79.2789 100.939 76.9523L90.3953 71.9031C90.4448 71.9526 88.3657 76.1108 88.2667 76.3583C87.1776 78.8829 86.3856 81.5066 85.7915 84.1797C85.3955 85.5658 85.1975 87.0013 85.0985 88.4369Z" fill="#3E2928"/>
<path d="M100.692 65.1708L89.6032 64.6758L86.8311 79.3285C90.1477 81.6056 100.197 80.7146 102.177 80.3681C101.583 75.9623 101.137 69.626 100.692 65.1708Z" fill="#00A99D"/>
<path d="M100.791 58.785C102.622 56.4088 103.117 53.3892 102.721 50.4685C102.325 47.5479 100.692 45.1223 97.5732 44.5777C92.7219 43.7857 89.2072 47.8449 89.3062 52.4486C89.3557 54.9733 89.6032 56.7058 87.7717 57.7949C85.9401 58.884 84.554 61.6561 86.3361 63.9332C88.1182 66.2103 86.5341 65.3688 85.346 67.3984C84.158 69.428 84.455 71.9031 86.9301 72.7942C89.4052 73.6852 100.791 72.0021 101.83 70.9131C102.177 70.4675 102.375 69.923 102.375 69.3785C102.177 67.8934 101.335 66.8044 100.197 65.8143C99.2562 65.0223 98.5137 64.0817 97.9692 62.9927C96.9296 61.1116 99.7513 60.171 100.791 58.785Z" fill="#F7931E"/>
<path d="M131.977 25.8659V27.5984L117.424 19.183V17.4504L131.977 25.8659Z" fill="#F7931E"/>
<path d="M173.758 50.0231L133.413 26.7074V28.44L173.461 51.7062C173.51 51.1616 173.609 50.5676 173.758 50.0231Z" fill="#00A99D"/>
<path d="M172.817 55.1218L167.916 52.3002V54.1318L172.52 56.8049C172.619 56.2604 172.718 55.6663 172.817 55.1218Z" fill="#139E20"/>
<path d="M166.481 51.4587V53.2903L143.561 39.9742V38.2416L166.481 51.4587Z" fill="#F7931E"/>
<path d="M142.126 37.4V39.1326L127.126 30.4201V28.7371L142.126 37.4Z" fill="#FA6D90"/>
<path d="M125.691 27.8956V29.6281L117.424 24.8264V23.1433L125.691 27.8956Z" fill="#139E20"/>
<path d="M171.827 60.171L132.918 37.6969V39.4295L171.431 61.8046C171.579 61.2601 171.728 60.7156 171.827 60.171Z" fill="#00A99D"/>
<path d="M127.176 40.7661V42.4987L112.672 34.0832V32.4001L127.176 40.7661Z" fill="#F7931E"/>
<path d="M168.956 64.9233L128.611 41.6077V43.3403L168.659 66.6064C168.758 66.0619 168.857 65.4679 168.956 64.9233Z" fill="#00A99D"/>
<path d="M168.015 70.0221L163.115 67.2004V69.032L167.718 71.7052C167.817 71.1606 167.916 70.6161 168.015 70.0221Z" fill="#139E20"/>
<path d="M161.679 66.3589V68.24L138.809 54.9238V53.1417L161.679 66.3589Z" fill="#F7931E"/>
<path d="M137.324 52.3001V54.0822L122.374 45.3698V43.6372L137.324 52.3001Z" fill="#FA6D90"/>
<path d="M120.938 42.7958V44.5284L112.672 39.7267V38.0436L120.938 42.7958Z" fill="#139E20"/>
<path d="M167.075 75.0714L128.166 52.5973V54.3299L166.679 76.7545C166.827 76.1605 166.926 75.6159 167.075 75.0714Z" fill="#00A99D"/>
<defs>
<radialGradient id="paint0_radial_642_2182" cx="0" cy="0" r="1" gradientUnits="userSpaceOnUse" gradientTransform="translate(113.414 94.8105) rotate(90) scale(66.4323 113.414)">
<stop stop-color="#CCE7E9"/>
<stop offset="1" stop-color="#7AC1C7"/>
</radialGradient>
</defs>
</svg>
