<svg width="851" height="621" viewBox="0 0 851 621" fill="none" xmlns="http://www.w3.org/2000/svg">
<path d="M851 308.78C851 479.314 721.606 617.56 561.991 617.56C402.375 617.56 272.981 479.314 272.981 308.78C272.981 138.245 402.375 0 561.991 0C721.606 0 851 138.245 851 308.78ZM356.199 308.78C356.199 430.21 448.335 528.649 561.991 528.649C675.646 528.649 767.782 430.21 767.782 308.78C767.782 187.349 675.646 88.9107 561.991 88.9107C448.335 88.9107 356.199 187.349 356.199 308.78Z" fill="#A3D4D8"/>
<path d="M822.019 312.22C822.019 482.755 692.625 621 533.009 621C373.394 621 244 482.755 244 312.22C244 141.686 373.394 3.44043 533.009 3.44043C692.625 3.44043 822.019 141.686 822.019 312.22ZM327.218 312.22C327.218 433.651 419.354 532.089 533.009 532.089C646.665 532.089 738.801 433.651 738.801 312.22C738.801 190.79 646.665 92.3511 533.009 92.3511C419.354 92.3511 327.218 190.79 327.218 312.22Z" fill="#7AC1C7"/>
<g clip-path="url(#clip0_182_769)">
<path d="M258.5 469.655C400.92 469.655 516.374 462.914 516.374 454.599C516.374 446.284 400.92 439.544 258.5 439.544C116.08 439.544 0.626282 446.284 0.626282 454.599C0.626282 462.914 116.08 469.655 258.5 469.655Z" fill="#F5F5F5"/>
<path d="M370.725 454.599H380.501L393.801 381.13H384.025L370.725 454.599Z" fill="#263238"/>
<path opacity="0.2" d="M370.725 454.599H380.501L393.801 381.13H384.025L370.725 454.599Z" fill="white"/>
<path opacity="0.2" d="M370.725 454.599H377.841L391.141 381.13H384.025L370.725 454.599Z" fill="white"/>
<path d="M343.208 402.982H382.296C382.58 402.984 382.861 402.929 383.123 402.821C383.385 402.714 383.623 402.555 383.824 402.355C384.024 402.154 384.183 401.916 384.291 401.654C384.398 401.392 384.453 401.111 384.451 400.827C384.453 400.544 384.398 400.263 384.291 400.001C384.183 399.738 384.024 399.5 383.824 399.3C383.623 399.099 383.385 398.941 383.123 398.833C382.861 398.725 382.58 398.671 382.296 398.673H343.208C342.924 398.671 342.643 398.725 342.381 398.833C342.119 398.941 341.881 399.099 341.68 399.3C341.48 399.5 341.321 399.738 341.214 400.001C341.106 400.263 341.051 400.544 341.053 400.827C341.051 401.111 341.106 401.392 341.214 401.654C341.321 401.916 341.48 402.154 341.68 402.355C341.881 402.555 342.119 402.714 342.381 402.821C342.643 402.929 342.924 402.984 343.208 402.982Z" fill="#263238"/>
<path d="M338.859 427.587H377.961C378.533 427.583 379.081 427.353 379.485 426.947C379.889 426.541 380.115 425.992 380.115 425.419C380.112 424.849 379.884 424.303 379.48 423.899C379.077 423.496 378.531 423.268 377.961 423.264H338.859C338.288 423.268 337.742 423.496 337.339 423.899C336.936 424.303 336.708 424.849 336.704 425.419C336.704 425.992 336.931 426.541 337.334 426.947C337.738 427.353 338.286 427.583 338.859 427.587Z" fill="#263238"/>
<path d="M330.825 454.599H340.601L353.901 381.13H344.125L330.825 454.599Z" fill="#263238"/>
<path opacity="0.2" d="M330.825 454.599H340.601L353.901 381.13H344.125L330.825 454.599Z" fill="white"/>
<path opacity="0.2" d="M330.825 454.599H337.941L351.241 381.13H344.125L330.825 454.599Z" fill="white"/>
<path d="M421.731 454.599H411.955L398.655 381.13H408.431L421.731 454.599Z" fill="#263238"/>
<path opacity="0.4" d="M421.731 454.599H411.955L398.655 381.13H408.431L421.731 454.599Z" fill="white"/>
<path opacity="0.2" d="M419.071 454.599H411.955L398.655 381.13H405.771L419.071 454.599Z" fill="white"/>
<path d="M404.561 402.982H365.459C364.887 402.982 364.339 402.755 363.935 402.351C363.531 401.947 363.304 401.399 363.304 400.827C363.304 400.256 363.531 399.708 363.935 399.304C364.339 398.9 364.887 398.673 365.459 398.673H404.561C405.132 398.673 405.68 398.9 406.084 399.304C406.488 399.708 406.715 400.256 406.715 400.827C406.715 401.399 406.488 401.947 406.084 402.351C405.68 402.755 405.132 402.982 404.561 402.982Z" fill="#263238"/>
<path d="M408.896 427.587H369.808C369.524 427.587 369.242 427.531 368.98 427.422C368.718 427.313 368.48 427.153 368.279 426.951C368.079 426.75 367.921 426.511 367.813 426.248C367.706 425.985 367.651 425.703 367.653 425.419C367.653 424.848 367.88 424.3 368.284 423.895C368.688 423.491 369.236 423.264 369.808 423.264H408.896C409.468 423.264 410.016 423.491 410.42 423.895C410.824 424.3 411.051 424.848 411.051 425.419C411.053 425.703 410.998 425.985 410.891 426.248C410.783 426.511 410.625 426.75 410.425 426.951C410.224 427.153 409.986 427.313 409.724 427.422C409.462 427.531 409.18 427.587 408.896 427.587Z" fill="#263238"/>
<path opacity="0.2" d="M404.561 402.982H365.459C364.887 402.982 364.339 402.755 363.935 402.351C363.531 401.947 363.304 401.399 363.304 400.827C363.304 400.256 363.531 399.708 363.935 399.304C364.339 398.9 364.887 398.673 365.459 398.673H404.561C405.132 398.673 405.68 398.9 406.084 399.304C406.488 399.708 406.715 400.256 406.715 400.827C406.715 401.399 406.488 401.947 406.084 402.351C405.68 402.755 405.132 402.982 404.561 402.982Z" fill="white"/>
<path opacity="0.2" d="M408.896 427.587H369.808C369.524 427.587 369.242 427.531 368.98 427.422C368.718 427.313 368.48 427.153 368.279 426.951C368.079 426.75 367.921 426.511 367.813 426.248C367.706 425.985 367.651 425.703 367.653 425.419C367.653 424.848 367.88 424.3 368.284 423.895C368.688 423.491 369.236 423.264 369.808 423.264H408.896C409.468 423.264 410.016 423.491 410.42 423.895C410.824 424.3 411.051 424.848 411.051 425.419C411.053 425.703 410.998 425.985 410.891 426.248C410.783 426.511 410.625 426.75 410.425 426.951C410.224 427.153 409.986 427.313 409.724 427.422C409.462 427.531 409.18 427.587 408.896 427.587Z" fill="white"/>
<path d="M381.831 454.599H372.055L358.755 381.13H368.531L381.831 454.599Z" fill="#263238"/>
<path opacity="0.4" d="M381.831 454.599H372.055L358.755 381.13H368.531L381.831 454.599Z" fill="white"/>
<path opacity="0.2" d="M379.171 454.599H372.055L358.755 381.13H365.871L379.171 454.599Z" fill="white"/>
<path d="M412.235 377.619H341.625C340.751 377.619 340.042 378.327 340.042 379.201V383.045C340.042 383.919 340.751 384.628 341.625 384.628H412.235C413.109 384.628 413.817 383.919 413.817 383.045V379.201C413.817 378.327 413.109 377.619 412.235 377.619Z" fill="#263238"/>
<path opacity="0.2" d="M368.464 377.619H341.625C340.751 377.619 340.042 378.327 340.042 379.201V383.045C340.042 383.919 340.751 384.628 341.625 384.628H368.464C369.338 384.628 370.047 383.919 370.047 383.045V379.201C370.047 378.327 369.338 377.619 368.464 377.619Z" fill="white"/>
<path d="M184.486 395.561H95.176V453.642H184.486V395.561Z" fill="#52AEB6"/>
<path opacity="0.6" d="M184.486 395.561H95.176V453.642H184.486V395.561Z" fill="white"/>
<path d="M181.227 406.453H98.4478V450.742H181.227V406.453Z" fill="#52AEB6"/>
<path d="M166.424 413.063H105.191V414.965H166.424V413.063Z" fill="white"/>
<path d="M134.571 418.902H105.191V420.804H134.571V418.902Z" fill="white"/>
<path d="M142.191 424.741H105.191V426.643H142.191V424.741Z" fill="white"/>
<path d="M118.225 430.566H105.191V432.468H118.225V430.566Z" fill="white"/>
<path d="M113.636 436.405H105.191V438.307H113.636V436.405Z" fill="white"/>
<path d="M294.849 454.599H222.151L234.454 357.948H282.546L294.849 454.599Z" fill="#52AEB6"/>
<path opacity="0.6" d="M294.849 454.599H222.151L230.57 388.471L234.467 357.948H282.533L288.279 402.982L294.849 454.599Z" fill="white"/>
<path opacity="0.1" d="M288.279 402.982L230.57 388.471L234.467 357.948H282.533L288.279 402.982Z" fill="black"/>
<path d="M429.897 119.625H87.1029C85.9508 119.625 84.81 119.852 83.7457 120.294C82.6815 120.735 81.7147 121.382 80.9006 122.197C80.0866 123.012 79.4412 123.98 79.0016 125.045C78.5619 126.11 78.3365 127.251 78.3382 128.403V360.462C78.3382 362.786 79.2616 365.016 80.9053 366.659C82.549 368.303 84.7784 369.226 87.1029 369.226H429.897C432.222 369.226 434.451 368.303 436.095 366.659C437.738 365.016 438.662 362.786 438.662 360.462V128.43C438.667 127.276 438.444 126.132 438.006 125.064C437.568 123.996 436.923 123.025 436.109 122.207C435.294 121.388 434.326 120.739 433.26 120.296C432.194 119.853 431.051 119.625 429.897 119.625Z" fill="#52AEB6"/>
<path opacity="0.7" d="M429.897 119.625H87.1029C85.9508 119.625 84.81 119.852 83.7457 120.294C82.6815 120.735 81.7147 121.382 80.9006 122.197C80.0866 123.012 79.4412 123.98 79.0016 125.045C78.5619 126.11 78.3365 127.251 78.3382 128.403V360.462C78.3382 362.786 79.2616 365.016 80.9053 366.659C82.549 368.303 84.7784 369.226 87.1029 369.226H429.897C432.222 369.226 434.451 368.303 436.095 366.659C437.738 365.016 438.662 362.786 438.662 360.462V128.43C438.667 127.276 438.444 126.132 438.006 125.064C437.568 123.996 436.923 123.025 436.109 122.207C435.294 121.388 434.326 120.739 433.26 120.296C432.194 119.853 431.051 119.625 429.897 119.625Z" fill="white"/>
<path d="M427.131 128.217H89.8826V351.99H427.131V128.217Z" fill="#52AEB6"/>
<path d="M319.547 447.337H197.44C196.676 447.337 196.057 447.957 196.057 448.721V453.096C196.057 453.86 196.676 454.479 197.44 454.479H319.547C320.311 454.479 320.93 453.86 320.93 453.096V448.721C320.93 447.957 320.311 447.337 319.547 447.337Z" fill="#52AEB6"/>
<path opacity="0.7" d="M319.547 447.337H197.44C196.676 447.337 196.057 447.957 196.057 448.721V453.096C196.057 453.86 196.676 454.479 197.44 454.479H319.547C320.311 454.479 320.93 453.86 320.93 453.096V448.721C320.93 447.957 320.311 447.337 319.547 447.337Z" fill="white"/>
<path opacity="0.2" d="M427.131 128.43H89.8826V161.786H427.131V128.43Z" fill="black"/>
<path opacity="0.4" d="M234.4 162.185H89.8826V351.99H234.4V162.185Z" fill="white"/>
<path d="M375.221 210.597V213.922H371.896" stroke="white" stroke-miterlimit="10"/>
<path d="M364.873 213.922H255.946" stroke="white" stroke-miterlimit="10" stroke-dasharray="5.28 5.28"/>
<path d="M252.435 213.922H249.11V210.597" stroke="white" stroke-miterlimit="10"/>
<path d="M249.11 204.572V147.343" stroke="white" stroke-miterlimit="10" stroke-dasharray="4.53 4.53"/>
<path d="M249.11 144.337V141.012H252.435" stroke="white" stroke-miterlimit="10"/>
<path d="M259.458 141.012H368.385" stroke="white" stroke-miterlimit="10" stroke-dasharray="5.28 5.28"/>
<path d="M371.896 141.012H375.221V144.337" stroke="white" stroke-miterlimit="10"/>
<path d="M375.221 150.362V207.592" stroke="white" stroke-miterlimit="10" stroke-dasharray="4.53 4.53"/>
<path d="M377.336 138.897H373.119V143.113H377.336V138.897Z" fill="#52AEB6" stroke="white" stroke-miterlimit="10"/>
<path d="M377.336 211.821H373.119V216.037H377.336V211.821Z" fill="#52AEB6" stroke="white" stroke-miterlimit="10"/>
<path d="M251.212 138.897H246.995V143.113H251.212V138.897Z" fill="#52AEB6" stroke="white" stroke-miterlimit="10"/>
<path d="M251.212 211.821H246.995V216.037H251.212V211.821Z" fill="#52AEB6" stroke="white" stroke-miterlimit="10"/>
<path d="M314.28 138.897H310.064V143.113H314.28V138.897Z" fill="#52AEB6" stroke="white" stroke-miterlimit="10"/>
<path d="M314.28 211.821H310.064V216.037H314.28V211.821Z" fill="#52AEB6" stroke="white" stroke-miterlimit="10"/>
<path d="M377.336 175.352H373.119V179.568H377.336V175.352Z" fill="#52AEB6" stroke="white" stroke-miterlimit="10"/>
<path d="M251.212 175.352H246.995V179.568H251.212V175.352Z" fill="#52AEB6" stroke="white" stroke-miterlimit="10"/>
<path opacity="0.7" d="M363.769 165.497H332.9C331.512 165.497 330.386 166.622 330.386 168.011V176.27C330.386 177.658 331.512 178.784 332.9 178.784H363.769C365.158 178.784 366.283 177.658 366.283 176.27V168.011C366.283 166.622 365.158 165.497 363.769 165.497Z" fill="white"/>
<path opacity="0.7" d="M310.569 165.497H279.7C278.312 165.497 277.186 166.622 277.186 168.011V176.27C277.186 177.658 278.312 178.784 279.7 178.784H310.569C311.958 178.784 313.083 177.658 313.083 176.27V168.011C313.083 166.622 311.958 165.497 310.569 165.497Z" fill="white"/>
<path opacity="0.7" d="M242.088 327.212H211.219C209.83 327.212 208.705 328.337 208.705 329.726V337.985C208.705 339.373 209.83 340.499 211.219 340.499H242.088C243.476 340.499 244.602 339.373 244.602 337.985V329.726C244.602 328.337 243.476 327.212 242.088 327.212Z" fill="white"/>
<path d="M404.866 140.294H416.092" stroke="white" stroke-width="1.5" stroke-linecap="round" stroke-linejoin="round"/>
<path d="M404.866 145.614H416.092" stroke="white" stroke-width="1.5" stroke-linecap="round" stroke-linejoin="round"/>
<path d="M404.866 150.934H416.092" stroke="white" stroke-width="1.5" stroke-linecap="round" stroke-linejoin="round"/>
<path opacity="0.5" d="M225.862 191.605H112.745V304.721H225.862V191.605Z" fill="white"/>
<path d="M160.093 200.848V298.431" stroke="#52AEB6" stroke-miterlimit="10"/>
<path d="M208.878 298.431C195.936 298.431 183.524 293.289 174.373 284.138C165.221 274.987 160.08 262.575 160.08 249.633C160.08 236.694 165.22 224.286 174.369 215.137C183.517 205.988 195.926 200.848 208.864 200.848" stroke="#52AEB6" stroke-miterlimit="10"/>
<path d="M210.992 198.747H206.776V202.963H210.992V198.747Z" fill="white" stroke="#52AEB6" stroke-miterlimit="10"/>
<path d="M210.992 296.316H206.776V300.532H210.992V296.316Z" fill="white" stroke="#52AEB6" stroke-miterlimit="10"/>
<path d="M162.208 247.531H157.992V251.748H162.208V247.531Z" fill="white" stroke="#52AEB6" stroke-miterlimit="10"/>
<path d="M161.184 200.848C161.184 201.064 161.12 201.275 161 201.454C160.88 201.634 160.71 201.773 160.511 201.856C160.311 201.939 160.092 201.96 159.881 201.918C159.669 201.876 159.475 201.772 159.322 201.62C159.17 201.467 159.066 201.273 159.024 201.061C158.982 200.85 159.003 200.63 159.086 200.431C159.168 200.232 159.308 200.061 159.487 199.942C159.667 199.822 159.878 199.758 160.093 199.758C160.381 199.761 160.657 199.877 160.861 200.081C161.064 200.285 161.18 200.56 161.184 200.848Z" fill="white" stroke="#52AEB6" stroke-miterlimit="10"/>
<path d="M161.184 298.431C161.184 298.646 161.12 298.856 161.001 299.035C160.882 299.214 160.712 299.354 160.514 299.437C160.315 299.52 160.097 299.542 159.885 299.501C159.674 299.46 159.48 299.357 159.327 299.206C159.174 299.055 159.069 298.862 159.025 298.651C158.982 298.441 159.001 298.222 159.082 298.022C159.162 297.823 159.3 297.652 159.478 297.53C159.655 297.409 159.865 297.343 160.08 297.34C160.224 297.338 160.368 297.365 160.501 297.419C160.635 297.473 160.757 297.553 160.86 297.655C160.962 297.756 161.044 297.877 161.1 298.01C161.155 298.143 161.184 298.286 161.184 298.431Z" fill="white" stroke="#52AEB6" stroke-miterlimit="10"/>
<path opacity="0.7" d="M347.517 328.821H313.269C310.645 328.821 308.128 327.779 306.272 325.923C304.417 324.067 303.374 321.55 303.374 318.926C303.374 316.301 304.417 313.785 306.272 311.929C308.128 310.073 310.645 309.031 313.269 309.031H347.517C350.141 309.031 352.658 310.073 354.514 311.929C356.37 313.785 357.412 316.301 357.412 318.926C357.412 321.55 356.37 324.067 354.514 325.923C352.658 327.779 350.141 328.821 347.517 328.821Z" fill="white"/>
<path opacity="0.7" d="M377.601 244.433H271.8C271.225 244.433 270.674 244.204 270.267 243.798C269.86 243.391 269.632 242.84 269.632 242.265C269.643 241.698 269.876 241.158 270.282 240.762C270.688 240.366 271.233 240.146 271.8 240.15H377.588C377.872 240.148 378.154 240.203 378.417 240.31C378.68 240.418 378.919 240.576 379.12 240.776C379.322 240.977 379.482 241.215 379.591 241.477C379.7 241.739 379.756 242.02 379.756 242.305C379.746 242.87 379.515 243.41 379.112 243.807C378.709 244.205 378.167 244.429 377.601 244.433Z" fill="white"/>
<path opacity="0.7" d="M377.601 260.22H271.8C271.516 260.221 271.234 260.167 270.971 260.06C270.708 259.952 270.469 259.794 270.268 259.593C270.066 259.393 269.906 259.155 269.797 258.893C269.688 258.63 269.632 258.349 269.632 258.065C269.632 257.49 269.86 256.939 270.267 256.532C270.674 256.126 271.225 255.897 271.8 255.897H377.588C378.163 255.897 378.715 256.126 379.121 256.532C379.528 256.939 379.756 257.49 379.756 258.065C379.756 258.637 379.529 259.185 379.125 259.589C378.721 259.993 378.173 260.22 377.601 260.22Z" fill="white"/>
<path opacity="0.7" d="M377.601 276.06H311.7C311.127 276.06 310.578 275.833 310.172 275.43C309.766 275.026 309.536 274.478 309.532 273.905C309.532 273.33 309.761 272.779 310.167 272.372C310.574 271.966 311.125 271.737 311.7 271.737H377.588C378.163 271.737 378.715 271.966 379.121 272.372C379.528 272.779 379.756 273.33 379.756 273.905C379.753 274.476 379.525 275.022 379.121 275.425C378.718 275.828 378.172 276.056 377.601 276.06Z" fill="white"/>
<path opacity="0.4" d="M108.011 137.673H100.536V145.148H108.011V137.673Z" fill="black"/>
<path opacity="0.4" d="M120.619 137.673H116.975C115.917 137.673 115.059 138.531 115.059 139.589V143.233C115.059 144.291 115.917 145.148 116.975 145.148H120.619C121.677 145.148 122.534 144.291 122.534 143.233V139.589C122.534 138.531 121.677 137.673 120.619 137.673Z" fill="black"/>
<path opacity="0.4" d="M133.653 137.673H133.014C131.127 137.673 129.596 139.204 129.596 141.092V141.73C129.596 143.618 131.127 145.148 133.014 145.148H133.653C135.541 145.148 137.071 143.618 137.071 141.73V141.092C137.071 139.204 135.541 137.673 133.653 137.673Z" fill="black"/>
<path opacity="0.9" d="M123.439 321.945V319.032L121.949 318.899C121.736 317.954 121.358 317.053 120.832 316.239L121.789 315.082L119.728 313.021L118.571 313.978C117.757 313.452 116.856 313.074 115.911 312.861L115.778 311.371H112.865L112.719 312.861C111.773 313.075 110.873 313.453 110.059 313.978L108.902 313.021L106.84 315.082L107.798 316.239C107.261 317.047 106.882 317.95 106.681 318.899L105.178 319.032V321.945L106.681 322.091C106.883 323.04 107.262 323.943 107.798 324.751L106.84 325.922L108.902 327.97L110.059 327.012C110.867 327.548 111.77 327.927 112.719 328.129L112.865 329.632H115.778L115.911 328.129C116.86 327.928 117.762 327.549 118.571 327.012L119.728 327.97L121.789 325.922L120.832 324.751C121.363 323.94 121.741 323.038 121.949 322.091L123.439 321.945ZM114.275 324.432C113.486 324.432 112.714 324.198 112.058 323.76C111.402 323.321 110.891 322.698 110.589 321.969C110.287 321.24 110.208 320.438 110.361 319.664C110.515 318.89 110.895 318.179 111.453 317.621C112.011 317.063 112.722 316.683 113.496 316.529C114.27 316.375 115.073 316.454 115.802 316.756C116.531 317.058 117.154 317.569 117.592 318.225C118.031 318.881 118.265 319.653 118.265 320.442C118.265 321.5 117.844 322.515 117.096 323.263C116.348 324.012 115.333 324.432 114.275 324.432Z" fill="white"/>
<path opacity="0.6" d="M135.249 330.164V327.93L134.078 327.81C133.92 327.061 133.622 326.348 133.201 325.709L133.945 324.791L132.336 323.182L131.432 323.94C130.788 323.519 130.07 323.221 129.317 323.062L129.211 321.878H126.923L126.817 323.062C126.063 323.221 125.346 323.519 124.702 323.94L123.798 323.182L122.175 324.791L122.933 325.709C122.512 326.348 122.214 327.061 122.055 327.81L120.885 327.93V330.204L122.055 330.324C122.214 331.073 122.512 331.786 122.933 332.425L122.175 333.343L123.798 334.952L124.702 334.194C125.346 334.616 126.063 334.913 126.817 335.072L126.923 336.242H129.211L129.317 335.072C130.07 334.913 130.788 334.616 131.432 334.194L132.336 334.952L133.945 333.343L133.201 332.425C133.622 331.786 133.92 331.073 134.078 330.324L135.249 330.164ZM128.067 332.119C127.453 332.122 126.853 331.943 126.342 331.604C125.83 331.265 125.431 330.782 125.194 330.216C124.958 329.65 124.895 329.026 125.013 328.424C125.131 327.822 125.425 327.269 125.858 326.834C126.29 326.399 126.843 326.103 127.444 325.982C128.046 325.861 128.669 325.922 129.236 326.156C129.803 326.39 130.288 326.788 130.629 327.297C130.97 327.807 131.152 328.407 131.152 329.021C131.154 329.427 131.076 329.83 130.921 330.205C130.767 330.581 130.54 330.923 130.253 331.211C129.967 331.499 129.626 331.727 129.251 331.883C128.876 332.039 128.473 332.119 128.067 332.119Z" fill="white"/>
<path opacity="0.4" d="M123.438 336.641V334.726L122.454 334.633C122.322 334.003 122.074 333.403 121.723 332.864L122.361 332.106L121.031 330.776L120.26 331.401C119.721 331.05 119.121 330.802 118.491 330.67L118.398 329.686H116.456L116.363 330.67C115.733 330.802 115.133 331.05 114.594 331.401L113.823 330.776L112.493 332.106L113.131 332.864C112.78 333.403 112.531 334.003 112.399 334.633L111.402 334.726V336.641L112.399 336.735C112.529 337.369 112.777 337.974 113.131 338.517L112.493 339.275L113.823 340.605L114.594 339.966C115.13 340.327 115.73 340.58 116.363 340.711L116.456 341.695H118.371L118.464 340.711C119.097 340.58 119.698 340.327 120.233 339.966L121.005 340.605L122.335 339.275L121.696 338.517C122.05 337.974 122.298 337.369 122.428 336.735L123.438 336.641ZM117.414 338.277C116.904 338.264 116.409 338.101 115.991 337.808C115.574 337.515 115.252 337.106 115.065 336.631C114.879 336.156 114.837 335.637 114.945 335.138C115.052 334.64 115.304 334.184 115.67 333.828C116.035 333.472 116.497 333.231 116.998 333.136C117.499 333.042 118.017 333.097 118.487 333.295C118.957 333.493 119.359 333.825 119.641 334.25C119.923 334.675 120.073 335.174 120.074 335.684C120.074 336.03 120.004 336.373 119.87 336.692C119.736 337.011 119.539 337.3 119.291 337.542C119.043 337.783 118.749 337.973 118.427 338.099C118.104 338.226 117.76 338.286 117.414 338.277Z" fill="white"/>
<path d="M374.449 140.254L380.089 155.336L389.518 145.893L374.449 140.254Z" fill="#52AEB6"/>
<path d="M383.532 147.228L381.425 149.334L386.099 154.008L388.206 151.902L383.532 147.228Z" fill="#52AEB6"/>
<path opacity="0.4" d="M389.518 145.893L374.449 140.254L380.089 155.336L383.759 151.665L386.087 154.006L388.188 151.904L385.861 149.564L389.518 145.893Z" fill="white"/>
<path d="M143.402 194.159L157.593 199.479L150.158 192.044C149.883 192.202 149.564 192.266 149.249 192.225C148.934 192.184 148.642 192.041 148.416 191.818C148.141 191.543 147.986 191.169 147.986 190.78C147.986 190.391 148.141 190.018 148.416 189.743C148.691 189.468 149.064 189.313 149.453 189.313C149.842 189.313 150.216 189.468 150.491 189.743C150.714 189.969 150.857 190.261 150.898 190.576C150.939 190.891 150.875 191.21 150.717 191.485L158.152 198.92L152.832 184.729L148.123 185.766L147.95 184.077L147.059 183.186L141.846 188.4L142.737 189.291L144.439 189.464L143.402 194.159Z" fill="#263238"/>
<path opacity="0.2" d="M143.402 194.159L157.593 199.479L150.158 192.044C149.883 192.202 149.564 192.266 149.249 192.225C148.934 192.184 148.642 192.041 148.416 191.818C148.141 191.543 147.986 191.169 147.986 190.78C147.986 190.391 148.141 190.018 148.416 189.743C148.691 189.468 149.064 189.313 149.453 189.313C149.842 189.313 150.216 189.468 150.491 189.743C150.714 189.969 150.857 190.261 150.898 190.576C150.939 190.891 150.875 191.21 150.717 191.485L158.152 198.92L152.832 184.729L148.123 185.766L147.95 184.077L147.059 183.186L141.846 188.4L142.737 189.291L144.439 189.464L143.402 194.159Z" fill="white"/>
<g opacity="0.1">
<path d="M139.199 128.217L89.2176 314.976V128.217H139.199Z" fill="white"/>
<path d="M195.604 128.217L135.714 351.99H94.4578L154.334 128.217H195.604Z" fill="white"/>
<path d="M255.587 128.217L195.697 351.99H177.037L236.927 128.217H255.587Z" fill="white"/>
<path d="M310.822 128.217L250.932 351.99H244.256L304.146 128.217H310.822Z" fill="white"/>
</g>
<path d="M513.727 177.64C518.448 183.08 542.468 229.35 537.827 240.15C533.185 250.95 494.695 238.501 494.695 238.501L496.996 223.246C496.996 223.246 511.945 223.778 513.381 222.355C514.818 220.932 493.152 199.306 493.152 199.306L513.727 177.64Z" fill="#263238"/>
<g opacity="0.2">
<path d="M537.8 240.15C537.229 241.4 536.235 242.408 534.994 242.996L534.222 243.342H534.116C533.878 243.442 533.633 243.527 533.384 243.595C532.303 243.942 531.189 244.173 530.059 244.286L529.088 244.379C528.61 244.379 528.131 244.446 527.639 244.459H526.309C513.408 244.459 494.641 238.408 494.641 238.408L496.942 223.153C496.942 223.153 511.892 223.685 513.328 222.262C513.674 221.916 512.65 220.373 510.907 218.272C506.678 213.071 498.206 204.413 494.708 200.875L493.125 199.279L513.727 177.64C518.448 183.027 542.468 229.297 537.8 240.15Z" fill="white"/>
</g>
<path opacity="0.2" d="M535.02 242.956L534.249 243.302H534.142C533.904 243.402 533.66 243.487 533.411 243.555C532.33 243.902 531.216 244.133 530.086 244.246L529.115 244.34C528.636 244.34 528.157 244.406 527.665 244.419H526.335C513.434 244.419 494.668 238.368 494.668 238.368L496.969 223.113C496.969 223.113 513.807 224.536 515.243 223.113C515.509 222.554 513.647 220.666 510.894 218.258C506.665 213.058 498.193 204.4 494.695 200.862L504.43 190.461L511.838 189.663C511.838 189.663 528.237 216.21 535.02 242.956Z" fill="black"/>
<path d="M465.195 176.071C462.535 177.999 461.205 180.739 462.269 182.189L532.546 279.079C533.597 280.529 536.616 280.13 539.276 278.201C541.936 276.273 543.266 273.52 542.202 272.083L471.925 175.18C470.874 173.743 467.869 174.129 465.195 176.071Z" fill="#263238"/>
<path opacity="0.7" d="M471.925 175.179L542.202 272.07C543.253 273.506 541.936 276.246 539.276 278.188C536.616 280.13 533.597 280.502 532.56 279.066L462.283 182.162C462.014 181.657 461.895 181.086 461.94 180.516C461.985 179.946 462.191 179.4 462.535 178.943C462.894 178.303 463.342 177.716 463.865 177.201C464.273 176.78 464.718 176.397 465.195 176.057C467.869 174.142 470.874 173.743 471.925 175.179Z" fill="white"/>
<path opacity="0.3" d="M542.202 272.07C543.253 273.506 541.936 276.246 539.276 278.188C536.616 280.13 533.597 280.502 532.56 279.066C531.975 278.268 533.424 277.057 534.275 275.315L462.535 178.97C462.894 178.329 463.342 177.743 463.865 177.228L534.156 274.131C534.569 273.712 535.013 273.325 535.486 272.974C538.146 271.033 541.152 270.634 542.202 272.07Z" fill="black"/>
<path d="M456.497 173.384C454.249 175.778 453.478 178.704 454.781 179.941L542.162 261.749C543.492 262.973 546.352 262.015 548.6 259.608C550.847 257.201 551.619 254.288 550.315 253.038L462.934 171.229C461.631 170.019 458.745 170.99 456.497 173.384Z" fill="#52AEB6"/>
<path opacity="0.7" d="M462.934 171.243L550.315 253.051C551.645 254.261 550.847 257.201 548.6 259.608C546.352 262.015 543.466 262.96 542.162 261.749L454.781 179.941C454.425 179.493 454.202 178.953 454.139 178.383C454.075 177.814 454.173 177.238 454.422 176.722C454.661 176.025 454.992 175.363 455.406 174.754C455.735 174.283 456.1 173.839 456.497 173.424C458.745 170.99 461.631 170.019 462.934 171.243Z" fill="white"/>
<path opacity="0.3" d="M550.315 253.051C551.645 254.261 550.847 257.201 548.6 259.608C546.352 262.015 543.466 262.959 542.162 261.749C541.444 261.071 542.641 259.621 543.147 257.759L454.422 176.749C454.661 176.052 454.992 175.39 455.406 174.781L542.801 256.602C543.122 256.129 543.482 255.685 543.878 255.272C546.126 252.785 549.012 251.827 550.315 253.051Z" fill="black"/>
<path d="M477.498 434.463L470.848 434.569C464.078 402.769 459.29 363.414 456.311 333.729C455.845 329.074 455.42 324.671 454.981 320.562C454.808 318.607 454.635 316.731 454.475 314.923C453.677 305.998 453.145 298.963 452.8 294.547C452.56 291.355 452.441 289.599 452.441 289.599H476.62L476.394 295.731L475.596 315.96L475.516 318.274L475.011 331.641L474.173 354.397C482.432 386.45 477.498 434.463 477.498 434.463Z" fill="#EBB376"/>
<path d="M531.496 432.761L524.939 433.997C511.812 401.186 499.483 359.172 491.463 329.819C490.226 325.27 489.082 321.014 488.058 317.157C488.058 316.957 487.965 316.771 487.912 316.585C485.89 308.924 484.334 302.82 483.363 298.949L482.206 294.254L505.88 290.158L507.21 300.133L509.192 314.763L509.577 317.636L510.907 327.624L514.512 354.41C528.184 384.601 531.496 432.761 531.496 432.761Z" fill="#EBB376"/>
<path opacity="0.2" d="M509.258 314.79L488.058 317.157C488.058 316.958 487.965 316.771 487.912 316.585C485.89 308.924 484.334 302.82 483.363 298.949L507.303 300.133L509.258 314.79Z" fill="black"/>
<path opacity="0.2" d="M476.341 295.731L475.596 315.96L475.516 318.274L455.034 320.548C454.861 318.593 454.688 316.718 454.529 314.909C453.731 305.985 453.199 298.949 452.853 294.534L476.341 295.731Z" fill="black"/>
<path d="M457.827 456.568C459.066 455.561 460.476 454.787 461.99 454.28C461.99 454.28 466.525 449.785 468.72 436.245L474.652 434.689C475.66 434.449 476.718 434.522 477.683 434.9C478.648 435.278 479.475 435.943 480.051 436.804C480.215 437.045 480.341 437.309 480.424 437.589C480.73 439.041 480.944 440.511 481.062 441.991C481.394 446.941 481.425 451.906 481.155 456.86H480.078L479.652 447.55C479.493 444.372 477.059 448.096 476.367 451.54C475.676 454.985 474.199 458.576 467.257 458.749C459.144 458.869 455.779 458.549 457.827 456.568Z" fill="#263238"/>
<path d="M480.264 436.99C480.65 433.825 480.77 428.318 480.77 428.318L467.576 429.781C467.576 429.781 469.172 436.046 467.855 440.754C474.505 438.932 480.264 436.99 480.264 436.99Z" fill="#263238"/>
<path d="M511.506 456.568C512.746 455.566 514.156 454.796 515.669 454.293C515.669 454.293 520.204 449.798 522.385 436.259L528.33 434.702C529.339 434.462 530.396 434.536 531.362 434.914C532.327 435.292 533.153 435.956 533.73 436.817C533.894 437.058 534.019 437.323 534.103 437.602C534.409 439.054 534.622 440.525 534.741 442.004C535.071 446.954 535.097 451.92 534.821 456.874H533.81L533.384 447.564C533.225 444.385 530.791 448.109 530.099 451.554C529.408 454.998 527.931 458.589 520.975 458.762C512.823 458.869 509.458 458.549 511.506 456.568Z" fill="#263238"/>
<path d="M533.93 436.99C534.329 433.825 534.448 428.318 534.448 428.318L521.255 429.781C521.255 429.781 522.851 436.046 521.534 440.754C528.184 438.932 533.93 436.99 533.93 436.99Z" fill="#263238"/>
<path d="M511.546 308.259L486.449 311.465L485.478 311.584L480.317 292.672L478.987 312.941L452.095 311.531C440.125 241.214 460.594 224.602 460.594 224.602L497.075 231.944C513.594 260.033 509.671 292.672 509.671 292.672L511.546 308.259Z" fill="#52AEB6"/>
<path d="M476.992 136.995C476.992 139.762 475.769 141.996 474.332 141.996C472.896 141.996 471.593 139.762 471.593 136.995C471.593 134.229 472.816 131.994 474.332 131.994C475.849 131.994 476.992 134.229 476.992 136.995Z" stroke="#263238" stroke-width="0.5" stroke-linecap="round" stroke-linejoin="round"/>
<path d="M495.014 153.7C494.917 153.791 494.81 153.872 494.695 153.939C493.177 155.096 491.446 155.942 489.601 156.427C484.214 157.677 480.53 156.932 478.123 154.498C474.758 150.841 473.92 144.363 474.399 136.543C474.483 133.431 475.057 130.352 476.101 127.419C476.101 127.419 476.101 127.3 476.101 127.273C476.101 127.246 476.181 127.047 476.234 126.94C476.894 125.286 477.957 123.824 479.328 122.688C480.699 121.552 482.334 120.778 484.081 120.437C485.596 120.098 487.144 119.924 488.696 119.918C503.951 119.798 506.691 145.042 495.014 153.7Z" fill="#EBB376"/>
<path opacity="0.2" d="M494.695 153.979C493.165 155.069 491.433 155.842 489.601 156.254C484.214 157.504 480.53 156.586 478.123 154.112C481.347 154.91 484.743 154.629 487.792 153.314C488.918 152.899 490.124 152.743 491.319 152.858C492.514 152.973 493.668 153.356 494.695 153.979Z" fill="black"/>
<path d="M496.237 167.745C497.182 172.081 491.556 173.849 491.556 173.849C482.366 169.859 480.663 165.032 480.663 165.032C488.337 161.042 486.116 149.723 486.116 149.723L487.672 150.495L498.618 152.636C498.618 152.636 495.586 158.461 495.187 159.791C493.112 166.774 496.237 167.745 496.237 167.745Z" fill="#EBB376"/>
<path d="M476.088 127.353C476.088 127.353 475.25 137.993 485.398 142.634C485.398 142.634 489.747 153.74 496.144 153.886C504.882 154.099 512.57 141.69 509.551 129.042C505.601 112.63 480.743 111.3 476.088 127.353Z" fill="#263238"/>
<path d="M480.238 139.562C480.238 137.9 481.568 135.093 484.228 135.479C486.888 135.865 488.404 142.488 481.807 143.964C480.809 144.177 480.238 143.06 480.238 139.562Z" fill="#EBB376"/>
<path d="M494.695 115.994C494.695 115.994 484.507 113.414 478.868 117.524C472.284 122.312 469.784 127.26 477.538 134.947C477.538 134.947 494.655 129.401 500.347 130.571C503.674 131.242 506.94 132.19 510.109 133.404C511.346 122.099 500.387 113.68 494.695 115.994Z" fill="#263238"/>
<path d="M480.238 136.995C480.238 136.995 482.898 149.311 478.721 159.818C478.721 159.818 502.927 168.21 511.346 163.648C519.765 159.086 512.051 143.778 511.692 134.947C511.333 126.116 507.503 113.068 494.695 115.994C481.887 118.92 480.238 136.995 480.238 136.995Z" fill="#263238"/>
<path d="M471.526 136.21H481.754" stroke="#263238" stroke-width="0.5" stroke-linecap="round" stroke-linejoin="round"/>
<path opacity="0.2" d="M486.449 311.465L485.478 311.584L480.317 292.672C480.317 292.672 491.383 273.772 487.925 263.93C488.417 264.622 500.334 282.298 486.449 311.465Z" fill="black"/>
<path d="M465.727 166.787C465.727 166.787 477.897 162.451 496.237 167.745C514.578 173.038 515.27 180.845 515.27 180.845C515.27 180.845 503.646 207.193 501.81 237.024L454.01 235.242C454.01 235.242 448.304 193.134 465.727 166.787Z" fill="#263238"/>
<path opacity="0.2" d="M515.27 180.845C515.27 180.845 503.646 207.193 501.81 237.025L454.01 235.242C453.439 230.386 453.146 225.502 453.132 220.612C453.038 213.456 453.482 206.302 454.462 199.213C456.058 188.174 459.343 176.39 465.727 166.734C465.727 166.734 477.897 162.398 496.237 167.692C514.578 172.985 515.27 180.845 515.27 180.845Z" fill="white"/>
<path opacity="0.2" d="M465.062 201.061C465.062 201.061 463.081 213.191 453.092 220.665C452.998 213.509 453.443 206.355 454.422 199.266L465.062 201.061Z" fill="black"/>
<path d="M412.248 165.949L406.223 157.012C406.223 157.012 405.305 153.128 404.135 152.25C402.965 151.373 391.394 146.438 389.997 146.465C388.601 146.491 388.667 155.482 389.997 157.012C391.327 158.541 398.695 161.813 400.637 162.146C402.579 162.478 401.621 162.146 401.621 162.146L406.941 172.786L412.248 165.949Z" fill="#EBB376"/>
<path d="M465.727 166.787C452.82 172.193 440.367 178.624 428.487 186.019L409.029 159.419C409.029 159.419 403.789 161.042 401.847 170.165C401.847 170.165 411.836 208.217 424.816 211.994C437.797 215.771 465.089 200.995 465.089 200.995C465.089 200.995 472.989 181.231 465.727 166.787Z" fill="#263238"/>
<path opacity="0.2" d="M465.727 166.787C452.82 172.193 440.367 178.624 428.487 186.019L409.029 159.419C409.029 159.419 403.789 161.042 401.847 170.165C401.847 170.165 411.836 208.217 424.816 211.994C437.797 215.771 465.089 200.995 465.089 200.995C465.089 200.995 472.989 181.231 465.727 166.787Z" fill="white"/>
<path d="M478.03 165.111C478.03 165.111 482.272 195.489 495.719 196.712C509.165 197.936 515.19 175.432 512.916 172.772C510.641 170.112 493.311 164.912 478.03 165.111Z" fill="#263238"/>
<path opacity="0.3" d="M478.03 165.111C478.03 165.111 482.272 195.489 495.719 196.712C509.165 197.936 515.19 175.432 512.916 172.772C510.641 170.112 493.311 164.912 478.03 165.111Z" fill="white"/>
</g>
<defs>
<clipPath id="clip0_182_769">
<rect width="551" height="355" fill="white" transform="translate(0 115)"/>
</clipPath>
</defs>
</svg>
