<svg width="131" height="25" viewBox="0 0 131 25" fill="none" xmlns="http://www.w3.org/2000/svg">
<path d="M15.8474 0.488106C15.8474 0.218532 16.0659 0 16.3355 0H20.9149C21.1844 0 21.403 0.218533 21.403 0.488107V15.0675C21.403 15.337 21.1844 15.5556 20.9149 15.5556H16.3355C16.0659 15.5556 15.8474 15.337 15.8474 15.0675V0.488106Z" fill="url(#paint0_linear_157_665)"/>
<path d="M21.403 14.7222C21.403 20.3985 16.8014 25 11.1252 25C5.44892 25 0.8474 20.3985 0.8474 14.7222C0.8474 9.04598 5.44892 4.44446 11.1252 4.44446C16.8014 4.44446 21.403 9.04598 21.403 14.7222ZM6.42359 14.7222C6.42359 17.3189 8.52856 19.4238 11.1252 19.4238C13.7218 19.4238 15.8268 17.3189 15.8268 14.7222C15.8268 12.1256 13.7218 10.0206 11.1252 10.0206C8.52856 10.0206 6.42359 12.1256 6.42359 14.7222Z" fill="url(#paint1_radial_157_665)"/>
<path d="M120.721 14.72C120.721 15.216 120.769 15.704 120.865 16.184C120.961 16.648 121.121 17.072 121.345 17.456C121.585 17.824 121.897 18.12 122.281 18.344C122.665 18.568 123.145 18.68 123.721 18.68C124.297 18.68 124.777 18.568 125.161 18.344C125.561 18.12 125.873 17.824 126.097 17.456C126.337 17.072 126.505 16.648 126.601 16.184C126.697 15.704 126.745 15.216 126.745 14.72C126.745 14.224 126.697 13.736 126.601 13.256C126.505 12.776 126.337 12.352 126.097 11.984C125.873 11.616 125.561 11.32 125.161 11.096C124.777 10.856 124.297 10.736 123.721 10.736C123.145 10.736 122.665 10.856 122.281 11.096C121.897 11.32 121.585 11.616 121.345 11.984C121.121 12.352 120.961 12.776 120.865 13.256C120.769 13.736 120.721 14.224 120.721 14.72ZM117.313 14.72C117.313 13.728 117.465 12.832 117.769 12.032C118.073 11.216 118.505 10.528 119.065 9.96797C119.625 9.39197 120.297 8.95197 121.081 8.64797C121.865 8.32797 122.745 8.16797 123.721 8.16797C124.697 8.16797 125.577 8.32797 126.361 8.64797C127.161 8.95197 127.841 9.39197 128.401 9.96797C128.961 10.528 129.393 11.216 129.697 12.032C130.001 12.832 130.153 13.728 130.153 14.72C130.153 15.712 130.001 16.608 129.697 17.408C129.393 18.208 128.961 18.896 128.401 19.472C127.841 20.032 127.161 20.464 126.361 20.768C125.577 21.072 124.697 21.224 123.721 21.224C122.745 21.224 121.865 21.072 121.081 20.768C120.297 20.464 119.625 20.032 119.065 19.472C118.505 18.896 118.073 18.208 117.769 17.408C117.465 16.608 117.313 15.712 117.313 14.72Z" fill="#052325"/>
<path d="M112.121 14.72C112.121 14.192 112.065 13.688 111.953 13.208C111.841 12.728 111.665 12.304 111.425 11.936C111.185 11.568 110.881 11.28 110.513 11.072C110.161 10.848 109.729 10.736 109.217 10.736C108.721 10.736 108.289 10.848 107.921 11.072C107.553 11.28 107.249 11.568 107.009 11.936C106.769 12.304 106.593 12.728 106.481 13.208C106.369 13.688 106.313 14.192 106.313 14.72C106.313 15.232 106.369 15.728 106.481 16.208C106.593 16.688 106.769 17.112 107.009 17.48C107.249 17.848 107.553 18.144 107.921 18.368C108.289 18.576 108.721 18.68 109.217 18.68C109.729 18.68 110.161 18.576 110.513 18.368C110.881 18.144 111.185 17.848 111.425 17.48C111.665 17.112 111.841 16.688 111.953 16.208C112.065 15.728 112.121 15.232 112.121 14.72ZM103.025 3.776H106.433V10.016H106.481C106.897 9.376 107.457 8.912 108.161 8.624C108.881 8.32 109.625 8.168 110.393 8.168C111.017 8.168 111.633 8.296 112.241 8.552C112.849 8.808 113.393 9.2 113.873 9.728C114.369 10.256 114.769 10.936 115.073 11.768C115.377 12.584 115.529 13.56 115.529 14.696C115.529 15.832 115.377 16.816 115.073 17.648C114.769 18.464 114.369 19.136 113.873 19.664C113.393 20.192 112.849 20.584 112.241 20.84C111.633 21.096 111.017 21.224 110.393 21.224C109.481 21.224 108.665 21.08 107.945 20.792C107.225 20.504 106.681 20.016 106.313 19.328H106.265V20.912H103.025V3.776Z" fill="#052325"/>
<path d="M89.0995 12.32C89.1475 11.52 89.3475 10.856 89.6995 10.328C90.0515 9.79997 90.4995 9.37597 91.0435 9.05597C91.5875 8.73597 92.1955 8.51197 92.8675 8.38397C93.5555 8.23997 94.2435 8.16797 94.9315 8.16797C95.5555 8.16797 96.1875 8.21597 96.8275 8.31197C97.4675 8.39197 98.0515 8.55997 98.5795 8.81597C99.1075 9.07197 99.5395 9.43197 99.8755 9.89597C100.211 10.344 100.379 10.944 100.379 11.696V18.152C100.379 18.712 100.411 19.248 100.475 19.76C100.539 20.272 100.651 20.656 100.811 20.912H97.3555C97.2915 20.72 97.2355 20.528 97.1875 20.336C97.1555 20.128 97.1315 19.92 97.1155 19.712C96.5715 20.272 95.9315 20.664 95.1955 20.888C94.4595 21.112 93.7075 21.224 92.9395 21.224C92.3475 21.224 91.7955 21.152 91.2835 21.008C90.7715 20.864 90.3235 20.64 89.9395 20.336C89.5555 20.032 89.2515 19.648 89.0275 19.184C88.8195 18.72 88.7155 18.168 88.7155 17.528C88.7155 16.824 88.8355 16.248 89.0755 15.8C89.3315 15.336 89.6515 14.968 90.0355 14.696C90.4355 14.424 90.8835 14.224 91.3795 14.096C91.8915 13.952 92.4035 13.84 92.9155 13.76C93.4275 13.68 93.9315 13.616 94.4275 13.568C94.9235 13.52 95.3635 13.448 95.7475 13.352C96.1315 13.256 96.4355 13.12 96.6595 12.944C96.8835 12.752 96.9875 12.48 96.9715 12.128C96.9715 11.76 96.9075 11.472 96.7795 11.264C96.6675 11.04 96.5075 10.872 96.2995 10.76C96.1075 10.632 95.8755 10.552 95.6035 10.52C95.3475 10.472 95.0675 10.448 94.7635 10.448C94.0915 10.448 93.5635 10.592 93.1795 10.88C92.7955 11.168 92.5715 11.648 92.5075 12.32H89.0995ZM96.9715 14.84C96.8275 14.968 96.6435 15.072 96.4195 15.152C96.2115 15.216 95.9795 15.272 95.7235 15.32C95.4835 15.368 95.2275 15.408 94.9555 15.44C94.6835 15.472 94.4115 15.512 94.1395 15.56C93.8835 15.608 93.6275 15.672 93.3715 15.752C93.1315 15.832 92.9155 15.944 92.7235 16.088C92.5475 16.216 92.4035 16.384 92.2915 16.592C92.1795 16.8 92.1235 17.064 92.1235 17.384C92.1235 17.688 92.1795 17.944 92.2915 18.152C92.4035 18.36 92.5555 18.528 92.7475 18.656C92.9395 18.768 93.1635 18.848 93.4195 18.896C93.6755 18.944 93.9395 18.968 94.2115 18.968C94.8835 18.968 95.4035 18.856 95.7715 18.632C96.1395 18.408 96.4115 18.144 96.5875 17.84C96.7635 17.52 96.8675 17.2 96.8995 16.88C96.9475 16.56 96.9715 16.304 96.9715 16.112V14.84Z" fill="#052325"/>
<path d="M83.152 3.776H86.56V20.912H83.152V3.776Z" fill="#052325"/>
<path d="M69.1307 12.32C69.1787 11.52 69.3787 10.856 69.7307 10.328C70.0827 9.79997 70.5307 9.37597 71.0747 9.05597C71.6187 8.73597 72.2267 8.51197 72.8987 8.38397C73.5867 8.23997 74.2747 8.16797 74.9627 8.16797C75.5867 8.16797 76.2187 8.21597 76.8587 8.31197C77.4987 8.39197 78.0827 8.55997 78.6107 8.81597C79.1387 9.07197 79.5707 9.43197 79.9067 9.89597C80.2427 10.344 80.4107 10.944 80.4107 11.696V18.152C80.4107 18.712 80.4427 19.248 80.5067 19.76C80.5707 20.272 80.6827 20.656 80.8427 20.912H77.3867C77.3227 20.72 77.2667 20.528 77.2187 20.336C77.1867 20.128 77.1627 19.92 77.1467 19.712C76.6027 20.272 75.9627 20.664 75.2267 20.888C74.4907 21.112 73.7387 21.224 72.9707 21.224C72.3787 21.224 71.8267 21.152 71.3147 21.008C70.8027 20.864 70.3547 20.64 69.9707 20.336C69.5867 20.032 69.2827 19.648 69.0587 19.184C68.8507 18.72 68.7467 18.168 68.7467 17.528C68.7467 16.824 68.8667 16.248 69.1067 15.8C69.3627 15.336 69.6827 14.968 70.0667 14.696C70.4667 14.424 70.9147 14.224 71.4107 14.096C71.9227 13.952 72.4347 13.84 72.9467 13.76C73.4587 13.68 73.9627 13.616 74.4587 13.568C74.9547 13.52 75.3947 13.448 75.7787 13.352C76.1627 13.256 76.4667 13.12 76.6907 12.944C76.9147 12.752 77.0187 12.48 77.0027 12.128C77.0027 11.76 76.9387 11.472 76.8107 11.264C76.6987 11.04 76.5387 10.872 76.3307 10.76C76.1387 10.632 75.9067 10.552 75.6347 10.52C75.3787 10.472 75.0987 10.448 74.7947 10.448C74.1227 10.448 73.5947 10.592 73.2107 10.88C72.8267 11.168 72.6027 11.648 72.5387 12.32H69.1307ZM77.0027 14.84C76.8587 14.968 76.6747 15.072 76.4507 15.152C76.2427 15.216 76.0107 15.272 75.7547 15.32C75.5147 15.368 75.2587 15.408 74.9867 15.44C74.7147 15.472 74.4427 15.512 74.1707 15.56C73.9147 15.608 73.6587 15.672 73.4027 15.752C73.1627 15.832 72.9467 15.944 72.7547 16.088C72.5787 16.216 72.4347 16.384 72.3227 16.592C72.2107 16.8 72.1547 17.064 72.1547 17.384C72.1547 17.688 72.2107 17.944 72.3227 18.152C72.4347 18.36 72.5867 18.528 72.7787 18.656C72.9707 18.768 73.1947 18.848 73.4507 18.896C73.7067 18.944 73.9707 18.968 74.2427 18.968C74.9147 18.968 75.4347 18.856 75.8027 18.632C76.1707 18.408 76.4427 18.144 76.6187 17.84C76.7947 17.52 76.8987 17.2 76.9307 16.88C76.9787 16.56 77.0027 16.304 77.0027 16.112V14.84Z" fill="#052325"/>
<path d="M59.0241 16.88C59.0241 17.248 59.0961 17.568 59.2401 17.84C59.4001 18.096 59.6001 18.312 59.8401 18.488C60.0801 18.648 60.3521 18.768 60.6561 18.848C60.9761 18.928 61.3041 18.968 61.6401 18.968C61.8801 18.968 62.1281 18.944 62.3841 18.896C62.6561 18.832 62.8961 18.744 63.1041 18.632C63.3281 18.504 63.5121 18.344 63.6561 18.152C63.8001 17.944 63.8721 17.688 63.8721 17.384C63.8721 16.872 63.5281 16.488 62.8401 16.232C62.1681 15.976 61.2241 15.72 60.0081 15.464C59.5121 15.352 59.0241 15.224 58.5441 15.08C58.0801 14.92 57.6641 14.72 57.2961 14.48C56.9281 14.224 56.6321 13.912 56.4081 13.544C56.1841 13.16 56.0721 12.696 56.0721 12.152C56.0721 11.352 56.2241 10.696 56.5281 10.184C56.8481 9.67197 57.2641 9.27197 57.7761 8.98397C58.2881 8.67997 58.8641 8.47197 59.5041 8.35997C60.1441 8.23197 60.8001 8.16797 61.4721 8.16797C62.1441 8.16797 62.7921 8.23197 63.4161 8.35997C64.0561 8.48797 64.6241 8.70397 65.1201 9.00797C65.6161 9.31197 66.0241 9.71997 66.3441 10.232C66.6801 10.728 66.8801 11.36 66.9441 12.128H63.7041C63.6561 11.472 63.4081 11.032 62.9601 10.808C62.5121 10.568 61.9841 10.448 61.3761 10.448C61.1841 10.448 60.9761 10.464 60.7521 10.496C60.5281 10.512 60.3201 10.56 60.1281 10.64C59.9521 10.72 59.8001 10.84 59.6721 11C59.5441 11.144 59.4801 11.344 59.4801 11.6C59.4801 11.904 59.5921 12.152 59.8161 12.344C60.0401 12.536 60.3281 12.696 60.6801 12.824C61.0481 12.936 61.4641 13.04 61.9281 13.136C62.3921 13.232 62.8641 13.336 63.3441 13.448C63.8401 13.56 64.3201 13.696 64.7841 13.856C65.2641 14.016 65.6881 14.232 66.0561 14.504C66.4241 14.76 66.7201 15.088 66.9441 15.488C67.1681 15.872 67.2801 16.352 67.2801 16.928C67.2801 17.744 67.1121 18.432 66.7761 18.992C66.4561 19.536 66.0321 19.976 65.5041 20.312C64.9761 20.648 64.3681 20.88 63.6801 21.008C63.0081 21.152 62.3201 21.224 61.6161 21.224C60.8961 21.224 60.1921 21.152 59.5041 21.008C58.8161 20.864 58.2001 20.624 57.6561 20.288C57.1281 19.952 56.6881 19.512 56.3361 18.968C56.0001 18.408 55.8161 17.712 55.7841 16.88H59.0241Z" fill="#052325"/>
<path d="M50.9548 13.376C50.7948 12.512 50.5068 11.856 50.0908 11.408C49.6908 10.96 49.0748 10.736 48.2428 10.736C47.6988 10.736 47.2428 10.832 46.8748 11.024C46.5228 11.2 46.2348 11.424 46.0108 11.696C45.8028 11.968 45.6508 12.256 45.5548 12.56C45.4748 12.864 45.4268 13.136 45.4108 13.376H50.9548ZM45.4108 15.536C45.4588 16.64 45.7388 17.44 46.2508 17.936C46.7628 18.432 47.4988 18.68 48.4588 18.68C49.1468 18.68 49.7388 18.512 50.2348 18.176C50.7308 17.824 51.0348 17.456 51.1468 17.072H54.1468C53.6668 18.56 52.9308 19.624 51.9388 20.264C50.9468 20.904 49.7468 21.224 48.3388 21.224C47.3628 21.224 46.4828 21.072 45.6988 20.768C44.9148 20.448 44.2508 20 43.7068 19.424C43.1628 18.848 42.7388 18.16 42.4348 17.36C42.1468 16.56 42.0028 15.68 42.0028 14.72C42.0028 13.792 42.1548 12.928 42.4588 12.128C42.7628 11.328 43.1948 10.64 43.7548 10.064C44.3148 9.47197 44.9788 9.00797 45.7468 8.67197C46.5308 8.33597 47.3948 8.16797 48.3388 8.16797C49.3948 8.16797 50.3148 8.37597 51.0988 8.79197C51.8828 9.19197 52.5228 9.73597 53.0188 10.424C53.5308 11.112 53.8988 11.896 54.1228 12.776C54.3468 13.656 54.4268 14.576 54.3628 15.536H45.4108Z" fill="#052325"/>
<path d="M36.739 14.672C36.739 14.16 36.691 13.672 36.595 13.208C36.499 12.728 36.331 12.312 36.091 11.96C35.867 11.592 35.571 11.296 35.203 11.072C34.835 10.848 34.371 10.736 33.811 10.736C33.251 10.736 32.779 10.848 32.395 11.072C32.011 11.296 31.699 11.592 31.459 11.96C31.235 12.328 31.067 12.752 30.955 13.232C30.859 13.696 30.811 14.184 30.811 14.696C30.811 15.176 30.867 15.656 30.979 16.136C31.091 16.616 31.267 17.048 31.507 17.432C31.763 17.8 32.075 18.104 32.443 18.344C32.827 18.568 33.283 18.68 33.811 18.68C34.371 18.68 34.835 18.568 35.203 18.344C35.587 18.12 35.891 17.824 36.115 17.456C36.339 17.072 36.499 16.64 36.595 16.16C36.691 15.68 36.739 15.184 36.739 14.672ZM36.787 19.328H36.739C36.339 20 35.811 20.488 35.155 20.792C34.515 21.08 33.787 21.224 32.971 21.224C32.043 21.224 31.227 21.048 30.523 20.696C29.819 20.328 29.235 19.84 28.771 19.232C28.323 18.608 27.979 17.896 27.739 17.096C27.515 16.296 27.403 15.464 27.403 14.6C27.403 13.768 27.515 12.968 27.739 12.2C27.979 11.416 28.323 10.728 28.771 10.136C29.235 9.544 29.811 9.072 30.499 8.72C31.187 8.352 31.987 8.168 32.899 8.168C33.635 8.168 34.331 8.328 34.987 8.648C35.659 8.952 36.187 9.408 36.571 10.016H36.619V3.776H40.027V20.912H36.787V19.328Z" fill="#052325"/>
<defs>
<linearGradient id="paint0_linear_157_665" x1="18.6252" y1="0" x2="18.6252" y2="15.5556" gradientUnits="userSpaceOnUse">
<stop stop-color="#7AC1C7"/>
<stop offset="1" stop-color="#52AEB6"/>
</linearGradient>
<radialGradient id="paint1_radial_157_665" cx="0" cy="0" r="1" gradientUnits="userSpaceOnUse" gradientTransform="translate(11.1252 14.7222) rotate(90) scale(10.2778)">
<stop stop-color="#A3D4D8"/>
<stop offset="1" stop-color="#7AC1C7"/>
</radialGradient>
</defs>
</svg>
