<svg width="153" height="198" viewBox="0 0 153 198" fill="none" xmlns="http://www.w3.org/2000/svg">
<g opacity="0.8" filter="url(#filter0_f_792_667)">
<path d="M77.7147 154.059C76.9116 154.396 72.5622 155.468 72.5622 155.468C72.5622 155.468 75.1829 156.861 75.375 156.87L71.2197 157.99C71.2197 157.99 65.634 156.436 65.1313 156.252C64.1842 155.947 65.6825 155.303 66.1142 155.187C66.466 155.112 66.7919 155.064 67.1718 155.002C67.5385 155.203 67.9591 155.389 68.4057 155.549C68.656 155.621 68.8761 155.642 69.3099 155.565C70.0416 155.428 70.9505 155.023 71.4859 154.799C72.1293 154.545 72.7445 154.279 73.3879 154.026C75.5333 153.708 77.4088 153.462 77.767 153.506C78.5115 153.605 78.9733 153.54 77.7147 154.059Z" fill="#CCE7E9"/>
<path d="M78.8932 153.582C78.9213 153.594 78.8954 153.621 78.8414 153.636C78.7679 153.795 77.9325 154.041 77.5288 154.169C75.994 154.643 74.2931 155.082 72.562 155.468C72.562 155.468 76.5575 154.431 76.3008 154.24C76.0463 154.089 75.55 154.023 74.9479 154.025C72.4941 154.207 71.1011 155.282 70.0108 155.876L68.0179 156.993L66.3523 156.562C66.3523 156.562 64.2983 156.036 64.3179 155.891C64.3374 155.746 65.3955 155.061 65.8573 154.996C66.3192 154.932 67.8408 154.721 67.8408 154.721L69.4091 155.378C69.4091 155.378 71.0566 154.454 72.3279 154.172C73.2215 153.991 78.9995 153.013 78.8932 153.582Z" fill="#CCE7E9"/>
<path d="M47.5703 164.124C47.091 164.373 46.2598 164.697 46.2186 164.948C46.1773 165.199 46.7901 165.394 47.2086 165.541C47.6271 165.688 48.0737 165.848 48.5742 165.993C48.5483 166.02 48.5504 166.059 48.6065 166.084C48.9689 166.206 49.3314 166.329 49.7478 166.436L47.0882 167.373C47.0882 167.373 42.5914 166.726 42.3369 166.574C42.0824 166.423 42.3234 164.799 43.5561 164.306C44.7888 163.814 49.3928 162.893 50.1049 162.901L50.1869 162.899C49.2521 163.331 48.3972 163.721 47.5703 164.124Z" fill="#CCE7E9"/>
<path d="M44.9209 165.758C44.9209 165.758 43.336 164.286 43.6794 164.053C44.0227 163.821 50.9556 162.432 50.8451 162.922C50.7801 163.239 47.3068 164.315 47.0391 164.427C47.0391 164.427 48.5072 163.732 48.285 163.672C48.0628 163.612 45.0778 164.096 45.11 164.188C45.1423 164.279 45.3674 165.918 45.3674 165.918L43.5819 166.819L38.8021 166.508L39.9983 165.845C39.9983 165.845 39.6188 165.408 39.7807 165.364C39.9426 165.321 42.9034 165.402 42.9034 165.402C42.9034 165.402 42.196 164.973 42.3536 164.851C42.5113 164.728 43.3106 163.813 45.0068 163.796L44.5895 164.688" fill="#CCE7E9"/>
<path d="M86.978 172.057C92.2018 172.988 91.6668 172.713 95.6282 173.584L84.6572 177.761C73.1617 177.281 42.8862 168.126 42.8862 168.126C42.8862 168.126 46.538 165.282 52.7197 164.176C52.7197 164.176 80.0818 171.077 80.1098 171.089C82.5913 171.42 82.8976 171.517 86.978 172.057Z" fill="#CCE7E9"/>
<path opacity="0.2" d="M82.179 171.391C82.179 171.391 79.0597 172.432 77.9842 173.301L62.2234 166.813L82.179 171.391Z" fill="#CCE7E9"/>
<path d="M99.7425 179.833C99.7425 179.833 100.916 185.355 100.639 185.81C100.362 186.264 104.807 186.965 103.646 187.258C102.485 187.551 99.8436 187.304 99.8436 187.304C99.8436 187.304 96.8636 189.407 94.5478 189.611C92.232 189.815 95.6256 186.241 95.6256 186.241L91.356 180.154" fill="#CCE7E9"/>
<path d="M113.701 177.25C113.701 177.25 133.095 174.462 134.449 174.177C135.802 173.892 140.674 174.398 141.009 174.008C141.344 173.618 139.105 173.202 139.105 173.202C139.105 173.202 144.566 171.43 144.096 170.837C143.626 170.244 133.313 172.904 133.313 172.904L110.314 175.364" fill="#CCE7E9"/>
<path d="M102.51 180.906L99.6614 183.414L90.1524 181.698L91.2123 179.013" fill="#CCE7E9"/>
<path d="M109.362 178.02L108.876 178.151C106.34 178.834 105.329 180.387 105.329 180.387C105.329 180.387 108.534 182.462 100.691 182.217C94.8778 182.024 86.9496 179.162 83.3125 177.704C84.4462 176.898 86.5423 176.173 88.6146 175.515C89.9595 175.072 91.3885 174.667 92.9275 174.272C93.873 174.037 94.8486 173.854 95.8543 173.723L103.24 175.651C105.118 176.484 107.159 177.274 109.362 178.02Z" fill="#CCE7E9"/>
<path d="M113 181.518C113 181.518 114.148 178.949 109.894 179.256C105.64 179.563 103.885 181.016 103.899 181.292C103.914 181.568 106.192 183.193 113 181.518Z" fill="#CCE7E9"/>
<path d="M113.641 181.725C112.285 182.471 109.986 182.99 107.65 183.34C105.723 183.639 103.599 183.852 101.871 183.778C101.497 183.959 101.014 184.129 100.446 184.262C99.0948 184.586 97.4848 184.68 96.488 184.469C95.6012 184.268 95.6038 183.808 96.4307 183.405C97.1 183.125 98.0174 182.877 99.0231 182.746C98.9951 182.734 99.021 182.707 98.993 182.694C98.6178 182.336 97.1459 182.452 96.2872 182.264C95.8729 182.196 95.5644 182.059 95.5279 181.889C95.4914 181.719 95.8326 181.447 95.6061 181.308C95.3278 181.223 95.0236 181.165 94.6114 181.136C94.1992 181.107 93.867 181.037 93.5347 180.966C95.6742 180.03 98.9745 179.3 102.042 178.813C105.298 178.295 108.894 177.966 111.803 178.102C111.781 178.207 111.678 178.315 111.546 178.411C111.146 178.619 110.691 178.801 110.207 178.972C109.566 179.264 110.861 179.415 111.118 179.606C111.519 179.938 110.798 180.272 109.912 180.611C109.269 180.864 109.411 180.966 109.642 181.183C109.761 181.351 110.123 181.474 110.619 181.54C110.835 181.482 111.079 181.436 111.325 181.43C111.789 181.404 112.279 181.352 112.741 181.288C113.231 181.236 113.645 181.304 113.708 181.447C113.822 181.536 113.8 181.642 113.641 181.725Z" fill="#CCE7E9"/>
<path d="M109.857 181.625C111.133 181.421 112.438 181.269 113.692 181.171C113.694 181.211 115.61 182.214 107.333 183.545C99.0553 184.877 99.4336 181.736 99.4336 181.736" fill="#CCE7E9"/>
<path d="M107.665 179.537C107.665 179.537 119.269 176.949 121.475 176.234L117.942 174.168L99.7566 176.03" fill="#CCE7E9"/>
<path d="M95.8828 173.735C95.8828 173.735 83.1277 155.959 79.3145 155.807C75.5014 155.656 63.0212 158.24 62.0384 159.305C61.0555 160.369 80.1071 174.089 80.1071 174.089" fill="#CCE7E9"/>
</g>
<path d="M25.5792 156.091C26.977 155.625 33.0342 156.013 33.0342 156.013C33.0342 156.013 33.5002 147.859 33.3448 147.626H39.3244C39.3244 147.626 41.1882 159.508 41.2658 160.75C41.4988 162.925 38.8585 163.856 38.2372 163.856C37.7713 163.779 37.383 163.624 36.9171 163.468C36.9947 162.303 36.9947 161.138 36.9171 160.051C36.8394 159.508 36.6841 159.197 36.1405 159.042C35.2086 158.809 33.5778 159.43 32.6459 159.741C31.5587 160.051 30.4715 160.44 29.3843 160.75C26.8217 159.741 24.6473 158.731 24.4143 158.188C23.9484 157.023 23.4048 156.79 25.5792 156.091Z" fill="#FFD9B3"/>
<path d="M23.5604 156.712C23.5604 156.634 23.638 156.557 23.7157 156.557C24.104 156.013 25.3465 155.935 25.9677 155.858C28.2974 155.625 30.7048 155.702 33.0345 156.013C33.0345 156.013 27.3655 155.858 27.2102 156.867C27.1326 157.721 27.4432 158.498 27.9868 159.119C30.5495 160.983 33.9664 158.265 36.1408 157.1L40.1789 154.848L40.8002 158.265C40.8002 158.265 41.5767 162.459 41.2661 163.002C40.9555 163.546 38.6258 165.099 38.0822 164.866C37.5386 164.633 35.7525 163.856 35.7525 163.856L35.6748 159.663C35.6748 159.663 32.3356 161.527 30.6271 161.294C29.4623 161.061 22.3178 158.809 23.5604 156.712Z" fill="black"/>
<path d="M72.8726 148.558C73.8045 148.092 75.2023 147.704 75.7459 146.772C76.2895 145.84 76.1342 144.442 76.0566 143.433C75.9789 142.423 75.9012 141.336 75.7459 140.249C75.8236 140.171 75.9012 140.016 75.9012 139.861C75.8236 139.006 75.7459 138.152 75.5906 137.298L79.8617 136.444C79.8617 136.444 82.5797 143.666 82.5021 144.52C82.4244 145.374 78.9299 151.431 76.8331 152.053C74.7364 152.674 68.7568 151.431 68.1356 150.655L68.0579 150.577C69.7663 149.878 71.3195 149.257 72.8726 148.558Z" fill="#FFD9B3"/>
<path d="M78.5413 144.986C78.5413 144.986 76.9882 152.363 76.2116 152.907C75.435 153.45 66.4269 151.587 67.5141 149.801C68.213 148.636 73.4936 148.092 73.9596 147.937C73.9596 147.937 71.2416 149.102 71.3192 149.568C71.3969 150.034 75.0468 151.276 75.2021 150.888C75.3574 150.499 78.4637 143.899 78.4637 143.899L81.8806 142.268L85.5304 148.48L83.1231 149.801C83.1231 149.801 82.5795 151.897 82.3465 151.897C82.1135 151.897 79.6285 148.48 79.6285 148.48C79.6285 148.48 79.3955 150.888 79.0073 151.198C78.619 151.509 76.0563 154.227 74.5032 152.519L76.6776 149.49" fill="black"/>
<path d="M53.6134 76.4924C50.8178 67.4066 50.7401 69.0373 48.954 61.5046L67.2034 56.7676C76.5222 70.6681 85.1421 137.919 85.1421 137.919C85.1421 137.919 76.1339 145.141 68.3682 142.967C68.3682 142.967 57.8069 87.5197 57.8069 87.442C56.2538 83.5592 56.1761 82.8603 53.6134 76.4924Z" fill="#68E1FD"/>
<path opacity="0.2" d="M56.5645 84.1031C56.5645 84.1031 61.4569 83.3265 64.1749 81.0745L65.1844 122.776L56.5645 84.1031Z" fill="black"/>
<path d="M57.8847 32.9271C57.8847 32.9271 67.9801 10.2513 69.1449 8.77581C70.3098 7.30033 67.7471 -0.0770482 69.3779 0.000608595C71.0087 0.0782654 72.8724 3.80579 72.8724 3.80579C72.8724 3.80579 79.7839 -1.2419 82.2689 0.388892C84.7539 2.01968 74.5032 12.348 74.5032 12.348L66.0387 40.4598" fill="#FFD9B3"/>
<path d="M40.1789 28.3453C40.1789 28.3453 17.1925 18.8712 15.4064 18.5606C13.6203 18.2499 10.2811 11.1832 9.19387 12.348C8.10668 13.5129 9.27153 17.4734 9.27153 17.4734C9.27153 17.4734 0.806942 18.6382 0.0303747 21.4339C-0.746193 24.2295 13.8533 24.6955 13.8533 24.6955L39.4023 39.2173" fill="#FFD9B3"/>
<path d="M57.5739 25.8604L65.1843 19.1042L70.232 35.7228L63.8641 45.0416" fill="#4444A5"/>
<path d="M45.615 29.8985H46.3139C49.9638 29.8985 54.0019 24.9284 54.0019 24.9284C54.0019 24.9284 55.3221 13.5129 61.8452 22.6764C66.66 29.5102 67.9801 48.9244 68.2908 58.3985C65.6504 60.3399 62.3112 60.9612 59.1273 61.3495C57.0305 61.6601 54.9338 61.7377 52.7594 61.6601C51.4393 61.5824 50.1967 61.2718 49.0319 60.7282L46.3139 45.5075C46.3139 40.3045 46.0809 35.1015 45.615 29.8985Z" fill="#4444A5"/>
<path d="M49.4204 12.5034C49.4204 12.5034 43.2079 21.2786 47.6343 24.5402C52.0607 27.8018 56.5648 23.9966 57.1084 22.9094C57.652 21.8222 58.8945 13.1247 49.4204 12.5034Z" fill="#FFD9B3"/>
<path d="M49.2645 11.028C51.9824 9.5525 55.0887 9.94078 57.8844 11.028C60.2141 11.8822 62.5438 13.28 63.9416 15.3768C64.6405 15.0661 65.4171 14.9108 66.1936 14.9885C68.0574 15.1438 69.6882 16.4639 70.1541 18.3277C70.5424 20.0362 69.6105 21.8223 68.0574 22.5212C66.8925 22.9095 65.5724 22.9095 64.4075 22.3659C64.4075 22.4435 64.3299 22.5212 64.3299 22.5988C63.9416 24.3849 65.4947 25.4721 65.883 27.1029C66.116 27.8018 66.116 28.6561 65.8053 29.355C65.4947 30.0539 64.6405 30.7528 64.5628 31.5294C64.6405 32.1506 64.7958 32.6942 65.1064 33.2378C65.4171 33.7814 65.5724 34.4027 65.7277 35.0239C61.9225 36.4217 57.4961 35.8005 53.7685 34.4803C49.8081 33.0825 45.9252 30.5975 43.5955 27.0253C43.8285 26.637 44.1391 26.3264 44.4497 26.0934C45.2263 25.7051 46.0029 25.4721 46.7794 25.3168C47.9443 24.8509 47.0901 22.9095 47.2454 21.8999C47.556 20.1915 48.8762 19.6479 50.3517 19.2596C51.4388 18.949 51.5165 18.4054 51.7495 17.3182C51.9824 16.5416 51.9048 15.6874 51.5942 14.9108C51.2835 14.9108 50.9729 14.8332 50.7399 14.6002C50.274 14.2119 49.7304 13.9013 49.1868 13.6683C48.6432 13.3577 48.4102 12.6588 48.6432 12.0375C48.7209 11.5716 48.9538 11.1833 49.2645 11.028Z" fill="#F9893D"/>
<path d="M52.4488 15.3766C50.8957 14.833 49.4202 14.0564 48.1 13.1246C48.1777 12.9692 48.4883 7.06732 58.5837 10.5619C68.679 14.0564 62.0006 25.8603 62.0006 25.8603" fill="#F9893D"/>
<path d="M50.1964 25.7826C50.1964 25.7826 34.5874 23.6858 31.1705 24.1518L30.161 35.878L50.1964 47.6818" fill="#4444A5"/>
<path d="M49.0316 60.6506C49.0316 60.6506 24.5697 143.044 27.676 147.626C30.7823 152.208 47.1679 155.237 50.1965 152.13C53.2251 149.024 63.8641 75.7937 63.8641 75.7937" fill="#68E1FD"/>
<defs>
<filter id="filter0_f_792_667" x="30.8021" y="145.406" width="121.323" height="52.2134" filterUnits="userSpaceOnUse" color-interpolation-filters="sRGB">
<feFlood flood-opacity="0" result="BackgroundImageFix"/>
<feBlend mode="normal" in="SourceGraphic" in2="BackgroundImageFix" result="shape"/>
<feGaussianBlur stdDeviation="4" result="effect1_foregroundBlur_792_667"/>
</filter>
</defs>
</svg>
