<svg width="248" height="248" viewBox="0 0 248 248" fill="none" xmlns="http://www.w3.org/2000/svg">
<rect width="248" height="248" rx="124" fill="white"/>
<path d="M91.7285 98.728C91.7285 98.728 89.6258 120.328 81.7248 121.794C73.8238 123.259 78.9212 95.7333 78.9212 95.7333" fill="#FCB273"/>
<path opacity="0.1" d="M91.7285 98.728C91.7285 98.728 89.6258 120.328 81.7248 121.794C73.8238 123.259 78.9212 95.7333 78.9212 95.7333" fill="#1A1F25"/>
<path d="M78.985 176.145C78.985 176.145 79.4947 183.154 78.985 185.257C78.4752 187.36 77.5194 192.585 75.8628 194.687C74.2061 196.79 74.3973 200.55 79.1761 199.785C83.955 199.02 87.7781 189.335 88.6701 186.723C89.5622 184.11 86.3763 172.259 86.3763 172.259" fill="#68E1FD"/>
<path d="M188.58 95.7969C185.203 81.7152 173.415 66.5503 158.951 63.0458C150.158 61.0069 140.919 62.7273 133.464 67.8884C124.798 73.8779 122.887 83.0533 117.853 91.5916C108.614 107.394 85.4205 115.358 79.877 132.753C76.1176 144.414 83.3815 155.756 92.1746 162.956C121.931 187.105 170.484 173.087 185.522 138.679C191.193 125.872 192.021 110.261 188.58 95.7969Z" fill="#85C440"/>
<path opacity="0.2" d="M188.644 95.6058C185.267 81.5241 173.479 66.3592 159.015 62.8547C158.378 62.7273 157.74 62.5998 157.103 62.4724C160.735 64.2565 163.921 66.8052 166.534 69.9274C175.39 80.3772 176.728 95.4784 176.028 108.604C175.709 114.976 174.626 121.603 171.631 127.274C168.509 133.136 163.857 136.131 157.804 138.552C152.324 140.782 147.354 142.885 142.576 146.453C139.645 148.683 136.714 150.786 133.336 152.315C126.2 155.501 118.044 155.119 110.653 152.952C98.8012 149.384 87.4594 141.355 80.7053 130.715C80.4504 131.352 80.1956 131.925 80.0044 132.562C76.245 144.223 83.5089 155.565 92.302 162.765C122.058 186.914 170.612 172.896 185.649 138.488C191.256 125.617 192.085 109.942 188.644 95.6058Z" fill="#053855"/>
<path d="M111.481 105.227C111.481 105.227 79.3035 118.544 73.8238 123.196C68.344 127.847 66.2413 130.587 67.5157 138.233C68.79 145.879 78.9849 176.082 78.9849 176.082C82.1071 176.592 85.2293 175.572 87.4594 173.342L83.6363 137.915C83.6363 137.915 108.614 129.376 115.814 125.745" fill="#45535E"/>
<path opacity="0.27" d="M111.481 105.227C111.481 105.227 79.3035 118.544 73.8238 123.196C68.344 127.847 66.2413 130.587 67.5157 138.233C68.79 145.879 78.9849 176.082 78.9849 176.082C82.1071 176.592 85.2293 175.572 87.4594 173.342L83.6363 137.915C83.6363 137.915 108.614 129.376 115.814 125.745" fill="#1A1F25"/>
<path d="M87.9054 191.183C87.9054 191.183 87.2683 203.672 86.185 204.882C85.1018 206.093 79.6221 206.858 79.877 209.598C80.1318 212.337 86.5674 212.465 89.817 211.318C93.0666 210.171 96.5074 203.481 97.9729 200.677C99.4384 197.873 99.9482 197.81 99.2473 196.089C98.5464 194.369 94.787 186.149 94.787 186.149" fill="#68E1FD"/>
<path d="M118.299 111.981C118.299 111.981 117.088 96.4978 131.68 75.7894C131.68 75.7894 149.266 82.4798 162.201 93.7579C162.201 93.7579 161.436 111.472 146.462 129.759C146.399 129.822 126.009 120.201 118.299 111.981Z" fill="#68E1FD"/>
<path opacity="0.27" d="M162.201 93.7581C162.201 93.7581 155.765 96.4979 151.432 105.928C147.1 115.358 142.384 124.852 146.399 129.759C146.399 129.823 159.142 117.015 162.201 93.7581Z" fill="#1A1F25"/>
<path opacity="0.27" d="M140.473 115.422C132.126 108.413 131.297 97.135 133.145 87.0675C133.209 86.6852 132.954 86.3666 132.636 86.3029C132.253 86.2392 131.935 86.4941 131.871 86.8127C129.959 97.3899 130.915 109.05 139.645 116.378C139.899 116.633 140.345 116.569 140.537 116.314C140.791 116.059 140.728 115.677 140.473 115.422Z" fill="#1A1F25"/>
<path d="M115.623 114.148C115.623 114.148 86.6948 135.557 85.4205 143.267C84.1461 150.977 87.9055 191.183 87.9055 191.183C87.9055 191.183 94.4047 194.56 96.38 191.183C98.3553 187.806 100.904 153.334 101.987 149.702C103.07 146.07 136.268 136.258 137.542 126.891C138.816 117.525 134.738 111.408 134.738 111.408" fill="#45535E"/>
<path d="M99.8845 66.6778C99.0561 66.4866 85.4205 74.4514 83.4452 79.1028C81.4699 83.7542 78.9849 95.7332 78.9849 95.7332L91.7285 98.728C91.7285 98.728 94.2136 89.9349 95.233 89.9349C96.2525 89.9349 103.899 94.3951 105.364 98.728C106.83 103.061 108.359 108.987 108.359 108.987C108.359 108.987 110.525 116.123 121.166 117.142C131.807 118.162 134.929 114.148 134.929 114.148C134.675 108.413 134.292 102.742 133.783 97.0076C133.4 92.4199 132.954 87.7685 132.253 83.1808C130.979 74.3877 127.347 64.7025 117.216 63.6193C109.506 62.8547 99.8845 66.6778 99.8845 66.6778Z" fill="#FE4754"/>
<path d="M82.8717 89.8712C82.8717 89.8712 71.7211 112.555 74.1423 118.481C76.5636 124.406 82.7443 123.451 85.293 117.589C87.8417 111.726 88.9887 92.1013 88.9887 92.1013C88.9887 92.1013 95.2967 88.4056 96.3162 84.3914C96.3162 84.3914 98.6101 83.1808 99.5021 84.3914C100.394 85.6021 101.095 86.5578 101.86 86.0481C102.624 85.5383 99.9482 79.6763 97.7818 78.6568C95.6153 77.6373 91.7923 77.8922 90.6453 78.147C89.4984 78.4019 82.8717 89.8712 82.8717 89.8712Z" fill="#FCB273"/>
<path d="M99.9482 80.8869C98.9287 80.5046 97.7817 80.4409 96.6985 80.6958C96.1888 80.8232 96.3799 81.5878 96.8897 81.4604C97.9729 81.2055 99.1835 81.1418 100.139 81.9064C100.267 82.0339 100.458 82.0338 100.585 81.9701C100.394 81.6515 100.139 81.2692 99.9482 80.8869Z" fill="#1A1F25"/>
<path d="M97.973 78.5931C96.9535 78.2746 95.934 78.3383 94.9145 78.7206C94.4047 78.9117 94.6596 79.6764 95.1056 79.4852C96.0614 79.1029 97.0809 79.1029 97.973 79.4852C98.2916 79.6126 98.5464 79.294 98.4827 78.9755C98.3553 78.848 98.1641 78.7206 97.973 78.5931Z" fill="#1A1F25"/>
<path d="M121.804 92.4199V97.5174C121.676 97.9634 121.485 108.604 119.637 110.643C117.789 112.682 99.0562 127.656 97.7818 128.421C96.5074 129.185 89.4985 131.352 87.2046 133.391C84.9107 135.43 83.6364 136.194 83.6364 137.915C83.6364 139.635 83.6364 141.037 85.4842 143.203C87.332 145.37 87.5869 144.732 87.9692 144.223C87.9692 144.86 88.479 145.37 89.1161 145.37C89.3073 145.37 89.5622 145.306 89.7533 145.178C90.7728 144.732 90.9002 144.223 90.9002 143.968C91.0277 144.35 91.4737 144.541 91.856 144.414C91.9197 144.414 91.9197 144.35 91.9835 144.35C92.9392 143.968 92.6206 140.208 93.3215 139.635C94.0224 139.062 100.139 135.493 101.159 134.028C101.159 134.028 124.926 122.495 129.513 116.951C133.4 112.236 133.336 96.689 133.273 91.8464C129.513 92.9934 125.563 93.1845 121.804 92.4199Z" fill="#FCB273"/>
<path d="M90.7091 138.743C90.7728 138.361 90.9639 137.978 91.2825 137.66C91.6011 137.214 90.9002 136.831 90.5816 137.277C89.9444 138.233 89.6896 138.297 89.8807 139.508C90.0719 141.101 90.3267 142.63 90.5179 144.223C90.5816 144.732 91.41 144.541 91.2825 144.032C91.1551 142.885 90.9639 141.738 90.8365 140.591C90.7091 140.017 90.6453 139.38 90.7091 138.743Z" fill="#1A1F25"/>
<path d="M88.9249 144.86C88.6701 143.649 88.4789 142.439 88.3515 141.228C88.2877 140.336 87.8417 138.424 88.67 137.787C89.0524 137.469 88.4789 136.895 88.0966 137.214C87.2045 137.915 87.3957 139.125 87.3957 140.145C87.4594 141.801 87.7143 143.458 88.0329 145.115C88.224 145.625 89.0524 145.37 88.9249 144.86Z" fill="#1A1F25"/>
<path d="M87.5232 144.86C87.1409 143.777 86.8223 142.693 86.5674 141.61C86.3763 140.782 85.5479 138.488 86.1851 137.787C86.5674 137.405 85.9302 136.831 85.6116 137.214C84.9107 137.978 85.1656 138.998 85.3568 139.954C85.6754 141.547 86.0577 143.076 86.5674 144.605C86.8223 144.796 87.2046 144.924 87.5232 144.86Z" fill="#1A1F25"/>
<path d="M133.846 90.6995C131.106 91.273 122.249 93.5668 120.657 90.8269C119.828 89.2977 119.892 86.3667 119.573 84.6463L118.363 77.8284C118.172 76.809 116.579 77.255 116.77 78.2745C117.343 81.5878 117.917 84.9012 118.554 88.2145C118.809 89.5526 118.681 92.2925 119.892 93.2482C121.166 94.204 124.352 93.6305 125.881 93.5031C128.685 93.3119 131.489 92.9296 134.228 92.2925C135.312 92.1013 134.866 90.5083 133.846 90.6995Z" fill="#FE4754"/>
<path opacity="0.1" d="M133.846 90.6995C131.106 91.273 122.249 93.5668 120.657 90.8269C119.828 89.2977 119.892 86.3667 119.573 84.6463L118.363 77.8284C118.172 76.809 116.579 77.255 116.77 78.2745C117.343 81.5878 117.917 84.9012 118.554 88.2145C118.809 89.5526 118.681 92.2925 119.892 93.2482C121.166 94.204 124.352 93.6305 125.881 93.5031C128.685 93.3119 131.489 92.9296 134.228 92.2925C135.312 92.1013 134.866 90.5083 133.846 90.6995Z" fill="#1A1F25"/>
<path d="M104.09 62.4087L110.78 69.4814C110.78 69.4814 110.971 76.7453 105.109 77.8922C99.2473 79.0391 97.0172 73.8142 97.0172 73.8142" fill="#FCB273"/>
<path opacity="0.1" d="M104.09 62.4087L110.78 69.4814C110.78 69.4814 110.971 76.7453 105.109 77.8922C99.2473 79.0391 97.0172 73.8142 97.0172 73.8142" fill="#1A1F25"/>
<path d="M104.6 67.0601C104.6 67.0601 106.957 59.0316 102.752 54.0616C98.5464 49.0916 94.5959 48.5819 91.0277 49.219C87.4595 49.8562 86.886 51.7678 84.6559 52.4049C82.4257 53.0421 78.4752 52.2775 78.8575 56.4829C79.2398 60.6883 81.1514 60.3697 81.1514 60.3697C81.1514 60.3697 77.5194 59.9874 79.1124 63.683C80.7053 67.3787 84.0187 70.7558 88.8613 68.3982" fill="#1A1F25"/>
<path d="M104.281 64.9574C104.281 64.9574 105.683 59.86 104.154 59.7325C102.624 59.6051 101.86 62.345 101.86 62.345C101.477 61.2618 101.031 60.1785 100.458 59.1591C96.1251 62.0264 89.8807 61.4529 84.9744 59.9237C83.8275 61.3255 84.0187 65.1486 85.0382 67.1238C85.0382 67.1238 91.41 81.1418 98.4827 78.0833C105.555 75.0249 104.281 64.9574 104.281 64.9574Z" fill="#FCB273"/>
</svg>
